<?xml version="1.0" encoding="UTF-8" standalone="no"?>
<svg
   width="1024"
   height="1024"
   version="1.1"
   id="svg24"
   sodipodi:docname="logo.svg"
   inkscape:export-filename="logo.png"
   inkscape:export-xdpi="12"
   inkscape:export-ydpi="12"
   inkscape:version="1.4 (1:1.4+202410161351+e7c3feb100)"
   xmlns:inkscape="http://www.inkscape.org/namespaces/inkscape"
   xmlns:sodipodi="http://sodipodi.sourceforge.net/DTD/sodipodi-0.dtd"
   xmlns="http://www.w3.org/2000/svg"
   xmlns:svg="http://www.w3.org/2000/svg">
  <defs
     id="defs24" />
  <sodipodi:namedview
     id="namedview24"
     pagecolor="#ffffff"
     bordercolor="#666666"
     borderopacity="1.0"
     inkscape:showpageshadow="2"
     inkscape:pageopacity="0.0"
     inkscape:pagecheckerboard="0"
     inkscape:deskcolor="#d1d1d1"
     inkscape:zoom="0.56445312"
     inkscape:cx="510.22838"
     inkscape:cy="510.22838"
     inkscape:window-width="1860"
     inkscape:window-height="1016"
     inkscape:window-x="60"
     inkscape:window-y="27"
     inkscape:window-maximized="1"
     inkscape:current-layer="svg24" />
  <g
     id="g1"
     transform="matrix(1.3083457,0,0,1.3083457,-158.46836,-164.51183)">
    <path
       fill="#bcdef6"
       transform="scale(2)"
       d="m 115.018,244.076 c -4.686,-0.362 -6.177,-3.335 -6.281,-7.536 -0.212,-8.6 0.024,-17.261 0.025,-25.867 l -0.018,-96.797 c -0.008,-15.3093 -3.699,-34.5127 13.486,-42.078 6.54,-2.879 30.883,-1.5535 39.442,-1.5439 l 33.61,-0.0204 c 7.615,-0.0077 21.183,-2.8311 24.096,5.0271 4.692,0.0202 9.502,0.2864 14.184,0 1.308,9.9684 11.795,7.0237 19.952,7.0239 l 111.604,-0.0055 c 22.066,-0.1032 26.383,-2.9177 26.371,23.0218 l -0.017,16.826 c -0.003,18.644 0.22,37.313 0.016,55.955 -0.072,6.502 -2.416,12.731 5.272,14.792 0.029,4.714 0.434,9.683 0,14.372 9.44,0.092 9.608,18.54 0,18.582 -0.009,3.653 -1.685,15.016 1.46,15.761 9.008,1.94 5.267,24.928 5.266,33.207 l 0.008,77.098 c 0.103,15.726 2.215,28.389 -15.157,35.815 -8.42,11.593 -9.292,27.482 -1.471,39.659 15.651,-0.652 11.016,11.495 4.346,11.97 -6.036,0.43 -12.359,-0.003 -18.429,-0.005 l -161.694,0.002 c 0.178,5.023 -0.873,6.679 -5.672,8.105 -7.852,-2.107 -6.002,-8.689 -5.913,-15.317 h -10.316 c -0.055,4.221 1.145,10.213 -2.058,13.5 -4.583,4.704 -9.516,-0.272 -9.879,-6.288 -9.571,0.368 -36.954,0.907 -44.3,-1.043 -29.271,-7.766 -24.212,-40.122 -24.198,-63.1 l 0.005,-95.618 c 0,-7.501 -3.332,-21.337 6.26,-22.211 0.499,-2.985 -0.02,-9.82 0,-13.287 z"
       id="path1" />
    <path
       transform="scale(2)"
       d="m 115.018,244.076 c -4.686,-0.362 -6.177,-3.335 -6.281,-7.536 -0.212,-8.6 0.024,-17.261 0.025,-25.867 l -0.018,-96.797 c -0.008,-15.3093 -3.699,-34.5127 13.486,-42.078 6.54,-2.879 30.883,-1.5535 39.442,-1.5439 l 33.61,-0.0204 c 7.615,-0.0077 21.183,-2.8311 24.096,5.0271 -0.415,9.5649 -10.812,7.0267 -18.156,7.0276 l -21.715,-0.0092 0.023,16.7849 c 0.011,5.1329 1.452,12.1779 -5.502,13.3339 -2.07,4.366 -2.174,9.893 -1.809,14.639 8.016,-1.834 7.345,7.28 7.321,12.608 l -0.033,237.311 172.406,0.022 c 1.788,0.005 3.718,0.18 5.48,-0.022 4.766,0.511 9.544,0.077 14.318,0.035 7.453,-0.066 15.863,1.496 19.132,-7.472 1.345,-3.69 0.639,-20.591 0.631,-25.271 l -0.012,-87.693 c -0.024,-6.187 -2.192,-15.049 6.758,-14.966 9.008,1.94 5.267,24.928 5.266,33.207 l 0.008,77.098 c 0.103,15.726 2.215,28.389 -15.157,35.815 -8.42,11.593 -9.292,27.482 -1.471,39.659 15.651,-0.652 11.016,11.495 4.346,11.97 -6.036,0.43 -12.359,-0.003 -18.429,-0.005 l -161.694,0.002 c 0.178,5.023 -0.873,6.679 -5.672,8.105 -7.852,-2.107 -6.002,-8.689 -5.913,-15.317 h -10.316 c -0.055,4.221 1.145,10.213 -2.058,13.5 -4.583,4.704 -9.516,-0.272 -9.879,-6.288 -9.571,0.368 -36.954,0.907 -44.3,-1.043 -29.271,-7.766 -24.212,-40.122 -24.198,-63.1 l 0.005,-95.618 c 0,-7.501 -3.332,-21.337 6.26,-22.211 0.499,-2.985 -0.02,-9.82 0,-13.287 z"
       id="path2" />
    <path
       fill="#fec302"
       transform="scale(2)"
       d="m 115.018,244.076 c -4.686,-0.362 -6.177,-3.335 -6.281,-7.536 -0.212,-8.6 0.024,-17.261 0.025,-25.867 l -0.018,-96.797 c -0.008,-15.3093 -3.699,-34.5127 13.486,-42.078 6.54,-2.879 30.883,-1.5535 39.442,-1.5439 l 33.61,-0.0204 c 7.615,-0.0077 21.183,-2.8311 24.096,5.0271 -0.415,9.5649 -10.812,7.0267 -18.156,7.0276 l -21.715,-0.0092 0.023,16.7849 c 0.011,5.1329 1.452,12.1779 -5.502,13.3339 -2.07,4.366 -2.174,9.893 -1.809,14.639 -8.033,2.717 -4.545,21.813 -4.544,30.045 l -0.001,219.874 -18.487,-0.017 c -12.055,-0.002 -18.25,-0.262 -28.594,6.817 l 0.012,-108.032 c 0.011,-6.98 2.536,-15.529 -5.587,-18.361 0.499,-2.985 -0.02,-9.82 0,-13.287 z"
       id="path3" />
    <path
       transform="scale(2)"
       d="m 115.018,244.076 c -4.686,-0.362 -6.177,-3.335 -6.281,-7.536 -0.212,-8.6 0.024,-17.261 0.025,-25.867 l -0.018,-96.797 c -0.008,-15.3093 -3.699,-34.5127 13.486,-42.078 6.54,-2.879 30.883,-1.5535 39.442,-1.5439 l 33.61,-0.0204 c 7.615,-0.0077 21.183,-2.8311 24.096,5.0271 -0.415,9.5649 -10.812,7.0267 -18.156,7.0276 l -21.715,-0.0092 0.023,16.7849 c 0.011,5.1329 1.452,12.1779 -5.502,13.3339 -10.526,-2.277 -6.362,-20.055 -6.354,-30.1188 -8.347,-0.2606 -16.771,0.0067 -25.128,-0.0089 -10.161,-0.0189 -21.467,-2.2559 -21.589,11.6274 -0.066,7.6473 1.63,16.0863 9.68,19.0193 5.922,2.157 12.449,-0.066 17.809,1.269 6.714,1.673 8.177,12.248 -5.526,12.074 -8.815,-0.112 -14.648,-0.094 -22.327,-5.124 l 0.008,102.106 c 0.006,7.429 2.433,17.908 -5.583,20.834 z"
       id="path4" />
    <path
       fill="#fec302"
       transform="scale(2)"
       d="m 139.2,388.822 c 2.584,-0.232 5.349,-0.031 7.951,-0.024 l 226.777,0.024 c -1.821,4.24 -3.172,8.444 -4.01,12.986 l -122.235,-0.012 c -4.233,-0.011 -17.231,-1.305 -20.499,1.408 -3.935,3.265 -1.933,9.454 2.894,10.221 3.605,0.572 8.922,0.094 12.714,0.095 l 29.333,0.011 h 97.793 c 0.79,4.777 1.891,9.214 3.306,13.837 H 211.089 c 0.453,-11.114 -6.748,-14.945 -11.585,-6.954 h -10.316 c -2.168,-3.161 -7.046,-5.885 -10.252,-2.403 -2.223,2.415 -1.713,6.326 -1.685,9.357 l -25.02,-0.004 c -4.726,0.005 -9.88,0.548 -14.521,-0.373 -22.406,-4.443 -22.142,-35.189 1.49,-38.169 z"
       id="path5" />
    <path
       fill="#6fc4f2"
       transform="scale(2)"
       d="m 365.118,82.2792 c 22.066,-0.1032 26.383,-2.9177 26.371,23.0218 l -0.017,16.826 c -0.003,18.644 0.22,37.313 0.016,55.955 -0.072,6.502 -2.416,12.731 5.272,14.792 0.029,4.714 0.434,9.683 0,14.372 9.44,0.092 9.608,18.54 0,18.582 -0.009,3.653 -1.685,15.016 1.46,15.761 -8.95,-0.083 -6.782,8.779 -6.758,14.966 l 0.012,87.693 c 0.008,4.68 0.714,21.581 -0.631,25.271 -3.269,8.968 -11.679,7.406 -19.132,7.472 -4.774,0.042 -9.552,0.476 -14.318,-0.035 2.486,-0.26 5.208,-0.018 7.725,0 9.873,-7.593 8.844,-13.557 8.825,-24.773 l -0.002,-236.309 c 0.001,-6.609 0.36,-13.489 -0.516,-20.0518 -0.891,-6.6711 -4.911,-8.4722 -8.307,-13.543 z"
       id="path6" />
    <path
       transform="scale(2)"
       d="m 396.76,207.246 c 9.44,0.092 9.608,18.54 0,18.582 -8.29,-1.138 -8.172,-16.695 0,-18.582 z"
       id="path7" />
    <path
       transform="scale(2)"
       d="m 265.185,127.037 25.001,-0.014 c 12.805,-0.005 20.219,-1.627 29.604,9.229 21.339,-0.034 31.361,1.994 29.665,26.342 1.953,1.002 4.053,2.112 5.829,3.405 12.106,8.812 7.209,27.16 -9.414,29.242 -0.434,14.811 0.538,31.206 0.528,46.348 15.22,3.893 14.803,26.925 -0.5,30.36 -4.368,0.981 -10.365,0.419 -14.896,0.417 l -27.377,-0.016 h -55.837 c -5.715,10e-4 -22.075,0.658 -26.648,-0.558 -15.364,-4.084 -14.074,-22.344 0.345,-30.203 -0.802,-14.503 2.457,-31.122 2.195,-46.348 -19.142,-3.854 -20.161,-25.695 -4.302,-31.204 -3.153,-25.734 7.465,-27.881 29.136,-27.785 3.727,-6.383 9.427,-8.682 16.671,-9.215 z"
       id="path8" />
    <path
       fill="#ffffff"
       transform="scale(2)"
       d="m 263.558,138.709 c 11.831,-0.402 23.815,-0.035 35.661,-0.007 9.16,0.022 7.503,1.492 12.892,6.665 9.645,9.258 26.738,-7.989 25.601,14.938 -3.382,3.721 -8.456,2.317 -13.03,2.311 l -19.807,-0.022 -48.845,-0.011 c -10.258,0.004 -31.356,5.199 -24.852,-11.202 2.252,-5.678 15.003,-2.6 20.112,-3.42 5.592,-0.898 7.206,-7.191 12.268,-9.252 z"
       id="path9" />
    <path
       fill="#ffffff"
       transform="scale(2)"
       d="m 306.362,187.446 c 2.32,1.502 4.44,3.681 6.609,5.428 -0.597,13.52 0.141,35.559 1.058,48.715 -2.443,1.449 -4.363,3.326 -6.2,5.469 l -0.144,0.182 -0.381,-0.103 c -1.838,-2.468 -3.75,-4.008 -6.375,-5.548 -0.424,-4.817 -0.012,-10.533 -0.01,-15.474 l 0.01,-33.241 c 1.651,-2.159 3.237,-3.821 5.433,-5.428 z"
       id="path10" />
    <path
       fill="#ffffff"
       transform="scale(2)"
       d="m 262.365,187.446 c 1.494,0.736 4.316,4.097 5.645,5.428 0.222,16.226 0,32.486 0,48.715 -3.092,1.322 -5.123,3.078 -7.441,5.469 -1.732,-2.016 -3.742,-3.462 -5.902,-4.993 0.52,-16.389 2.189,-32.774 1.836,-49.191 1.98,-1.779 3.897,-3.632 5.862,-5.428 z"
       id="path11" />
    <path
       fill="#fec302"
       transform="scale(2)"
       d="m 235.682,195.241 h 9.039 c 0.566,13.663 -0.996,31.289 -1.801,45.05 h -9.358 c -1.06,-13.553 2.345,-30.607 2.12,-45.05 z"
       id="path12" />
    <path
       fill="#fec302"
       transform="scale(2)"
       d="m 279.901,195.241 c 3.109,-0.076 6.202,-0.068 9.311,0 v 45.05 h -9.311 z"
       id="path13" />
    <path
       fill="#fec302"
       transform="scale(2)"
       d="m 324.797,195.241 h 9.681 c -0.001,15 0.308,30.057 0,45.05 h -8.696 c 0.801,-14.021 -1.179,-30.449 -0.985,-45.05 z"
       id="path14" />
    <path
       fill="#fec302"
       transform="scale(2)"
       d="m 312.971,174.496 c 8.299,-0.213 24.138,-0.865 32.093,0.06 4.648,0.54 5.941,4.551 3.211,7.989 -3.175,2.161 -8.249,1.241 -11.881,1.239 l -16.604,-0.025 c -2.877,-2.5 -7.366,-5.006 -6.819,-9.263 z"
       id="path15" />
    <path
       fill="#fec302"
       transform="scale(2)"
       d="m 225.133,174.496 h 30.397 v 3.144 c -1.821,1.595 -3.61,3.193 -5.324,4.905 -2.101,2.588 -25.61,1.413 -26.925,0.642 -4.479,-2.625 -3.335,-7.773 1.852,-8.691 z"
       id="path16" />
    <path
       fill="#fec302"
       transform="scale(2)"
       d="m 274.078,252.006 c 3.695,-0.269 16.284,-0.41 19.678,0.084 4.475,0.651 5.621,4.459 5.928,8.48 -2.016,0.071 -4.042,0.015 -6.059,0 H 268.01 c 0.201,-4.421 1.557,-7.229 6.068,-8.564 z"
       id="path17" />
    <path
       fill="#fec302"
       transform="scale(2)"
       d="m 320.768,252.006 c 4.961,-0.096 24.725,-1.881 25.096,3.869 0.241,3.723 -2.183,4.652 -5.377,4.695 H 314.89 c 0.631,-4.195 1.624,-6.801 5.878,-8.564 z"
       id="path18" />
    <path
       fill="#fec302"
       transform="scale(2)"
       d="m 227.346,252.006 11.78,-0.019 c 8.249,-0.042 12.573,-0.83 14.254,8.583 h -5.693 c -3.593,-10e-4 -21.78,0.587 -23.936,-0.365 -3.755,-1.659 -0.685,-7.027 3.595,-8.199 z"
       id="path19" />
    <path
       fill="#fec302"
       transform="scale(2)"
       d="m 269.344,174.496 c 3.883,-0.069 28.538,-0.514 30.314,0.588 l -0.425,0.189 0.428,-0.244 c 0.898,2.034 -2.754,4.57 -3.987,5.708 -0.859,0.946 -1.438,1.915 -2.049,3.022 -5.877,-0.028 -11.848,0.307 -17.71,0 -1.719,-1.43 -8.869,-6.568 -6.571,-9.263 z"
       id="path20" />
    <path
       transform="scale(2)"
       d="m 241.896,319.575 c 5.163,-0.212 10.423,-0.012 15.595,-0.01 l 55.001,-0.01 c 4.345,-0.005 8.809,-0.221 13.143,0.056 7.618,0.486 7.649,10.679 0.147,11.859 -17.669,0.261 -35.382,-0.005 -53.055,-0.005 l -19.786,0.02 c -3.495,0.006 -7.083,0.188 -10.566,-0.051 -8.18,-0.562 -7.992,-10.486 -0.479,-11.859 z"
       id="path21" />
    <path
       transform="scale(2)"
       d="m 279.901,294.544 c 12.64,-0.186 25.308,-0.014 37.951,0.013 5.588,0.012 24.036,-2.489 26.144,4.055 1.247,3.87 -1.469,6.934 -4.985,7.951 -2.777,0.242 -5.671,0.043 -8.461,0.028 l -38.331,-0.026 c -3.64,0.002 -7.359,0.181 -10.988,10e-4 -8.326,-0.415 -9.425,-10.54 -1.33,-12.022 z"
       id="path22" />
    <path
       transform="scale(2)"
       d="m 246.134,294.544 c 3.26,0.045 9.885,-0.724 12.427,1.321 3.809,3.065 2.548,9.242 -2.144,10.393 -3.738,0.916 -13.139,0.317 -17.554,0.305 -3.515,0.013 -9.908,0.818 -12.602,-1.593 -3.576,-3.201 -2.19,-8.903 2.361,-10.048 3.712,-0.933 13.278,-0.389 17.512,-0.378 z"
       id="path23" />
    <path
       transform="scale(2)"
       d="m 233.562,75.2608 c 3.023,-8.3569 20.486,-5.014 28.628,-5.0121 L 357.572,70.24 c 15.934,0.0031 36.51,-4.1113 43.946,14.193 2.479,6.1023 1.778,12.3228 1.856,18.725 l 0.115,64.547 c 0.005,5.612 0.2,11.309 -0.06,16.913 -0.243,5.223 -1.087,7.562 -6.669,8.256 -7.688,-2.061 -5.344,-8.29 -5.272,-14.792 0.204,-18.642 -0.019,-37.311 -0.016,-55.955 l 0.017,-16.826 c 0.012,-25.9395 -4.305,-23.125 -26.371,-23.0218 l -111.604,0.0055 c -8.157,-2e-4 -18.644,2.9445 -19.952,-7.0239 z"
       id="path24" />
  </g>
</svg>
