<?xml version="1.0" encoding="utf-8" ?>
<svg xmlns="http://www.w3.org/2000/svg" xmlns:xlink="http://www.w3.org/1999/xlink" width="1024" height="1024">
	<path fill="#FEC302" transform="scale(2 2)" d="M303.174 110.717C305.212 103.804 319.845 105.112 323.25 106.451C325.388 107.293 326.193 109.741 326.658 111.786C328.393 112.295 338.154 111.732 340.897 111.786C342.939 103.101 355.783 106.212 363.644 106.215L420.592 106.215C425.49 106.217 432.74 105.567 437.382 106.832C452.72 111.01 451.483 123.009 451.488 134.876C451.491 143.165 455.658 164.015 443.742 162.667C443.79 165.347 443.907 168.044 443.742 170.721C449.457 170.543 451.453 173.702 451.515 179.1C451.592 185.946 453.364 195.732 443.742 195.455C443.523 201.532 443.713 207.691 443.742 213.776C452.993 211.984 451.505 222.58 451.508 228.275L451.515 258.805C451.514 263.668 452.306 267.255 448.521 270.925C447.258 270.968 445.992 271.053 444.733 270.925C443.961 273.694 445.174 285.244 444.733 289.43C454.746 290.068 451.51 302.552 451.504 310.572L451.503 369.528C451.501 374.482 451.788 379.628 451.419 384.565C450.226 400.528 427.88 411.222 423.522 397.481C418.352 397.154 413.043 397.451 407.855 397.481C406.591 405.312 396.627 402.969 390.433 402.971L348.713 402.964C342.681 402.959 336.13 404.666 333.898 397.481C329.049 397.854 323.867 397.473 318.991 397.481C318.442 399.887 317.28 401.822 314.702 402.408C309.391 403.615 283.826 403.209 278.143 401.944C262.181 398.393 264.544 379.098 264.557 367.359L264.566 241.044C264.571 227.45 264.238 213.784 264.53 200.201C264.631 195.508 265.915 193.748 270.653 192.834L271.028 192.773L271.146 192.338L271.442 192.499C270.32 190.636 270.7 181.077 270.653 178.418C267.534 175.949 269.187 172.75 267.905 171.257C266.314 169.405 264.458 170.056 263.708 166.652C262.864 162.819 265.692 159.993 269.211 159.22C269.176 156.576 269.279 153.935 269.211 151.289C261.902 149.073 264.611 140.971 264.611 135.097C264.61 122.937 263.413 110.484 279.527 106.7C285.501 105.298 294.259 104.411 295.965 111.786C298.454 111.001 300.556 110.733 303.174 110.717Z"/>
	<path transform="scale(2 2)" d="M270.653 192.834C279.119 194.533 276.273 208.123 276.267 215.035L276.256 372.002C276.235 385.55 273.21 391.328 289.316 390.846C296.84 390.621 318.53 387.11 318.991 397.481C318.442 399.887 317.28 401.822 314.702 402.408C309.391 403.615 283.826 403.209 278.143 401.944C262.181 398.393 264.544 379.098 264.557 367.359L264.566 241.044C264.571 227.45 264.238 213.784 264.53 200.201C264.631 195.508 265.915 193.748 270.653 192.834Z"/>
	<path transform="scale(2 2)" d="M340.897 111.786C342.939 103.101 355.783 106.212 363.644 106.215L420.592 106.215C425.49 106.217 432.74 105.567 437.382 106.832C452.72 111.01 451.483 123.009 451.488 134.876C451.491 143.165 455.658 164.015 443.742 162.667C438.262 159.956 439.735 152.066 439.749 147.06L439.803 131.81C439.869 113.475 431.012 117.994 415.348 117.992L369.528 117.989C362.559 117.989 353.877 118.453 347.104 117.947C342.833 117.627 341.749 115.891 340.897 111.786Z"/>
	<path transform="scale(2 2)" d="M444.733 289.43C454.746 290.068 451.51 302.552 451.504 310.572L451.503 369.528C451.501 374.482 451.788 379.628 451.419 384.565C450.226 400.528 427.88 411.222 423.522 397.481C424.492 389.527 429.797 392.506 435.117 390.64C442.394 388.089 439.778 372.929 439.776 366.603L439.756 319.49C439.755 311.446 436.351 292.103 444.733 289.43Z"/>
	<path transform="scale(2 2)" d="M333.898 397.481C334.175 388.752 343.638 390.79 349.583 390.79L390.152 390.794C396.509 390.796 407.135 388.512 407.855 397.481C406.591 405.312 396.627 402.969 390.433 402.971L348.713 402.964C342.681 402.959 336.13 404.666 333.898 397.481Z"/>
	<path transform="scale(2 2)" d="M269.211 151.289C261.902 149.073 264.611 140.971 264.611 135.097C264.61 122.937 263.413 110.484 279.527 106.7C285.501 105.298 294.259 104.411 295.965 111.786C296.05 123.819 276.047 111.787 276.001 126.612C275.977 134.27 279.935 151.327 269.211 151.289Z"/>
	<path transform="scale(2 2)" d="M443.742 213.776C452.993 211.984 451.505 222.58 451.508 228.275L451.515 258.805C451.514 263.668 452.306 267.255 448.521 270.925C447.258 270.968 445.992 271.053 444.733 270.925C437.939 269.112 439.746 262.644 439.746 257.109L439.757 226.402C439.757 220.591 438.552 217.465 443.742 213.776Z"/>
	<path transform="scale(2 2)" d="M443.742 170.721C449.457 170.543 451.453 173.702 451.515 179.1C451.592 185.946 453.364 195.732 443.742 195.455C437.829 191.885 438.533 179.993 439.956 174.619C440.483 172.628 442.102 171.703 443.742 170.721Z"/>
	<path transform="scale(2 2)" d="M303.174 110.717C305.212 103.804 319.845 105.112 323.25 106.451C325.388 107.293 326.193 109.741 326.658 111.786C325.826 118.236 321.489 117.979 315.996 118.022C309.318 118.075 303.31 119.142 303.174 110.717Z"/>
	<path transform="scale(2 2)" d="M269.211 159.22C275.37 159.185 279.905 161.23 279.868 168.085C279.84 173.369 278.4 184.716 270.653 178.418C267.534 175.949 269.187 172.75 267.905 171.257C266.314 169.405 264.458 170.056 263.708 166.652C262.864 162.819 265.692 159.993 269.211 159.22Z"/>
	<path transform="scale(2 2)" d="M343.046 292.804L405.218 292.8C409.82 292.804 419.617 291.48 419.861 298.369C419.99 302.006 417.999 304.545 414.312 304.625L351.32 304.651C348.11 304.66 342.237 305.562 339.484 303.505C334.899 300.078 336.927 293.622 343.046 292.804Z"/>
	<path transform="scale(2 2)" d="M353.909 149.881L407.316 149.868C410.346 149.866 415.863 149.058 418.322 151.272C422.997 155.482 419.441 161.822 412.063 161.674L357.189 161.719C353.939 161.752 349.629 162.414 346.962 160.077C341.159 154.992 346.728 149.992 353.909 149.881Z"/>
	<path transform="scale(2 2)" d="M351.178 352.13C353.186 351.724 355.797 352.078 357.864 352.093L402.451 352.127C406.554 352.118 412.947 350.852 416.791 352.566C422.217 354.984 419.749 362.07 415.187 363.822L376.379 363.825C370.592 363.832 353.006 365.179 348.211 362.423C344.1 360.06 345.152 353.124 351.178 352.13Z"/>
	<path transform="scale(2 2)" d="M358.639 207.271C366.282 206.969 413.501 206.551 416.818 208.052C422.127 210.457 420.164 217.694 415.187 219.104C407.758 219.246 359.662 220.046 355.85 218.133C350.692 215.546 353.404 208.434 358.639 207.271Z"/>
	<path transform="scale(2 2)" d="M331.462 178.418L360.607 178.404C365.155 178.405 378.786 177.789 382.242 178.976C388.038 180.968 386.584 188.471 381.485 190.256C366.966 190.484 347.683 191.214 333.364 190.241C325.415 189.7 323.98 180.498 331.462 178.418Z"/>
	<path transform="scale(2 2)" d="M333.898 322.07L363.529 322.054C371.522 322.052 383.308 319.127 385.824 327.915C384.815 332.059 382.711 333.687 378.438 333.657L348.426 333.664C344.445 333.672 331.853 334.871 328.66 332.561C323.252 328.648 326.649 322.35 333.898 322.07Z"/>
	<path transform="scale(2 2)" d="M302.101 207.271L324.923 207.26C328.844 207.248 337.809 206.141 341.202 208.341C346.129 211.535 343.81 218.282 338.123 219.104C328.796 219.614 310.855 219.887 301.525 219.12C293.986 218.501 293.942 208.38 302.101 207.271Z"/>
	<path transform="scale(2 2)" d="M351.178 235.836L373.889 235.859C377.738 235.858 384.31 234.667 387.787 236.714C392.527 239.505 391.112 246.756 385.824 247.655C380.869 247.767 350.515 248.555 347.956 246.769C343.022 243.324 345.451 236.711 351.178 235.836Z"/>
	<path transform="scale(2 2)" d="M381.485 264.755C386.642 264.712 413.626 264.152 416.521 265.234C422.531 267.48 419.977 274.437 415.187 276.242C409.637 276.276 382.407 276.957 379.23 275.542C374.628 273.493 374.798 266.602 381.485 264.755Z"/>
	<path transform="scale(2 2)" d="M329.942 264.755C334.463 264.706 361.748 264.293 363.817 265.165C369.249 267.455 367.927 274.585 362.837 276.242L340.315 276.234C336.955 276.234 333.445 276.475 330.103 276.255C323.11 275.794 323.226 266.388 329.942 264.755Z"/>
	<path transform="scale(2 2)" d="M299.796 352.13C300.176 352.059 330.625 351.53 332.384 351.923C338.251 353.236 338.55 360.261 333.898 363.161C329.401 364.259 304.377 364.35 300.205 362.986C294.581 361.147 294.781 354.392 299.796 352.13Z"/>
	<path transform="scale(2 2)" d="M304.72 235.836L321.766 235.819C324.975 235.82 328.474 235.576 331.641 236.088C337.973 237.112 339.344 247.846 327.813 247.655L310.767 247.675C307.446 247.683 301.001 248.668 298.159 246.496C292 241.79 296.676 236.034 304.72 235.836Z"/>
	<path transform="scale(2 2)" d="M300.607 149.881C304.237 149.665 329.019 149.602 331.231 150.21C337.516 151.938 336.584 159.106 331.462 161.674C326.305 161.957 301.504 162.347 298.496 160.873C293.068 158.212 295.319 151.188 300.607 149.881Z"/>
	<path transform="scale(2 2)" d="M300.607 292.804C305.946 292.826 321.241 292.014 325.417 293.745C330.857 295.998 328.748 302.72 324.297 304.625C320.516 305.164 316.243 304.609 312.381 304.611C307.455 304.614 298.592 306.577 296.243 300.673C294.742 296.901 297.19 294.096 300.607 292.804Z"/>
	<path transform="scale(2 2)" d="M399.44 178.418C403.565 178.397 412.709 177.729 416.212 179.107C422.094 181.421 420.876 188.004 415.187 190.256C411.506 190.492 400.443 190.849 397.623 189.353C392.355 186.558 394.436 179.881 399.44 178.418Z"/>
	<path transform="scale(2 2)" d="M400.918 322.07C404.696 322.043 413.887 321.295 416.974 322.965C422.311 325.853 419.383 332.703 414.312 333.657C410.153 333.653 399.185 334.537 396.092 332.111C390.825 327.978 395.09 322.34 400.918 322.07Z"/>
	<path transform="scale(2 2)" d="M300.607 322.07C304.415 321.895 312.191 321.399 315.392 323.154C320.352 325.873 317.98 332.703 313.028 333.657C309.096 333.687 302.076 334.427 298.737 332.622C293.777 329.942 295.453 323.054 300.607 322.07Z"/>
	<path transform="scale(2 2)" d="M302.101 178.418C305.807 178.456 311.455 177.439 314.718 179.383C320.116 182.597 317.047 189.246 311.694 190.256C307.804 190.275 300.948 191.151 297.666 188.626C292.802 184.886 296.477 178.821 302.101 178.418Z"/>
	<path transform="scale(2 2)" d="M405.076 235.836C408.462 235.659 414.365 235.121 417.371 236.845C422.524 239.801 420.184 246.351 415.187 247.655C411.691 247.831 406 248.474 402.888 246.809C397.644 244.002 400.132 237.149 405.076 235.836Z"/>
	<path transform="scale(2 2)" d="M300.607 264.755C303.839 264.715 307.942 264.222 311.087 264.977C317.122 266.426 316.283 273.654 311.694 276.242C308.651 276.513 302.136 276.825 299.396 275.674C293.64 273.256 295.519 266.594 300.607 264.755Z"/>
	<path fill="#BCDEF6" transform="scale(2 2)" d="M69.265 167.665C56.3253 173.972 56.206 144.44 78.9622 138.465C84.6191 136.98 97.1361 135.185 98.9458 142.931C103.284 143.5 107.958 143.885 112.195 144.949L113.258 145.212C112.123 137.273 118.977 137.864 124.831 137.95L211.267 137.984C224.075 137.985 237.584 136.5 248.16 145.329C257.09 152.782 257.229 163.812 247.466 170.721L247.479 282.066C247.488 288.664 250.089 301.419 240.77 302.593L240.467 302.931C241.311 307.958 240.798 313.134 240.77 318.203C249.304 318.447 247.488 327.016 247.481 332.955L247.466 352.13C251.006 353.372 252.479 354.996 253.286 358.538C251.172 365.522 245.773 364.124 239.757 363.822C239.746 367.489 239.177 377.575 239.757 380.329L248.442 380.329C251.144 381.674 252.201 383.337 253.286 386.051C250.877 393.531 245.172 392.28 238.703 392.257L224.998 392.232C225.039 395.38 225.665 399.843 223.395 402.327C221.113 404.824 217.161 404.623 214.866 402.249C212.418 399.717 212.981 395.482 213.005 392.232C208.683 391.969 204.277 392.191 199.946 392.219L102.38 392.232C102.441 398.761 103.517 403.268 96.2432 405.464C89.4619 403.65 90.319 398.123 90.4327 392.232C80.7169 391.739 73.2203 393.394 65.7363 384.988C58.7642 377.158 60.2327 367.425 60.2296 357.728C60.2272 350.244 57.0196 336.747 67.8359 337.6C68.434 335.344 67.4851 331.83 67.8359 329.262C57.429 330.964 59.6567 315.397 60.1974 308.451C60.547 303.96 63.5013 302.188 67.8359 302.593C68.4129 300.79 67.7967 289.607 67.8359 286.767C64.9339 287.239 61.6142 286.606 60.5396 283.445C59.6975 280.968 60.193 248.12 60.1934 242.566L60.1989 209.301C60.2 203.465 60.0486 197.585 60.2328 191.754C60.3778 187.162 61.8101 186.032 66.2136 184.569C67.2468 184.885 68.2539 185.251 69.265 185.63C69.2756 179.642 69.1652 173.652 69.265 167.665Z"/>
	<path transform="scale(2 2)" d="M240.77 318.203C249.304 318.447 247.488 327.016 247.481 332.955L247.466 352.13C251.006 353.372 252.479 354.996 253.286 358.538C251.172 365.522 245.773 364.124 239.757 363.822C239.746 367.489 239.177 377.575 239.757 380.329L248.442 380.329C251.144 381.674 252.201 383.337 253.286 386.051C250.877 393.531 245.172 392.28 238.703 392.257L224.998 392.232C225.039 395.38 225.665 399.843 223.395 402.327C221.113 404.824 217.161 404.623 214.866 402.249C212.418 399.717 212.981 395.482 213.005 392.232C208.683 391.969 204.277 392.191 199.946 392.219L102.38 392.232C102.441 398.761 103.517 403.268 96.2432 405.464C89.4619 403.65 90.319 398.123 90.4327 392.232C80.7169 391.739 73.2203 393.394 65.7363 384.988C58.7642 377.158 60.2327 367.425 60.2296 357.728C60.2272 350.244 57.0196 336.747 67.8359 337.6C74.068 341.16 71.9774 348.452 71.9834 354.56C77.1455 352.422 80.8154 351.96 86.3837 352.13L235.5 352.13C235.488 343.351 231.675 320.712 240.77 318.203Z"/>
	<path fill="#FEC302" transform="scale(2 2)" d="M86.3837 380.329C76.2349 381.042 67.3339 374.376 75.4859 366.582C78.6178 363.588 82.3748 363.706 86.3837 363.822L239.757 363.822C239.746 367.489 239.177 377.575 239.757 380.329L224.998 380.329C224.991 377.225 225.584 372.453 223.102 370.146C220.683 367.896 216.557 368.566 214.533 371.012C212.576 373.376 213.058 377.431 213.005 380.329L102.38 380.329C102.171 377.511 102.293 373.81 99.9375 371.834C93.2423 366.222 90.3951 374.478 90.4327 380.329L86.3837 380.329Z"/>
	<path fill="#4FB5E9" transform="scale(2 2)" d="M69.265 167.665C56.3253 173.972 56.206 144.44 78.9622 138.465C84.6191 136.98 97.1361 135.185 98.9458 142.931C98.6634 146.869 97.2479 148.733 93.5503 149.881C83.9845 160.006 86.3736 168.715 86.3831 181.651L86.3837 352.13C80.8154 351.96 77.1455 352.422 71.9834 354.56C71.9774 348.452 74.068 341.16 67.8359 337.6C68.434 335.344 67.4851 331.83 67.8359 329.262C57.429 330.964 59.6567 315.397 60.1974 308.451C60.547 303.96 63.5013 302.188 67.8359 302.593C68.4129 300.79 67.7967 289.607 67.8359 286.767C64.9339 287.239 61.6142 286.606 60.5396 283.445C59.6975 280.968 60.193 248.12 60.1934 242.566L60.1989 209.301C60.2 203.465 60.0486 197.585 60.2328 191.754C60.3778 187.162 61.8101 186.032 66.2136 184.569C67.2468 184.885 68.2539 185.251 69.265 185.63C69.2756 179.642 69.1652 173.652 69.265 167.665Z"/>
	<path transform="scale(2 2)" d="M67.8359 286.767C64.9339 287.239 61.6142 286.606 60.5396 283.445C59.6975 280.968 60.193 248.12 60.1934 242.566L60.1989 209.301C60.2 203.465 60.0486 197.585 60.2328 191.754C60.3778 187.162 61.8101 186.032 66.2136 184.569C67.2468 184.885 68.2539 185.251 69.265 185.63C74.8613 191.051 71.9789 240.604 71.9829 251.193L71.9948 272.959C71.9985 276.424 72.2768 280.049 71.9834 283.491C70.755 284.886 69.4962 285.909 67.8359 286.767Z"/>
	<path transform="scale(2 2)" d="M69.265 167.665C56.3253 173.972 56.206 144.44 78.9622 138.465C84.6191 136.98 97.1361 135.185 98.9458 142.931C98.6634 146.869 97.2479 148.733 93.5503 149.881C66.1831 149.203 77.7837 159.499 69.265 167.665Z"/>
	<path transform="scale(2 2)" d="M67.8359 329.262C57.429 330.964 59.6567 315.397 60.1974 308.451C60.547 303.96 63.5013 302.188 67.8359 302.593C69.3518 303.46 70.7656 304.272 71.9834 305.552C71.9596 312.293 74.5755 325.885 67.8359 329.262Z"/>
	<path transform="scale(2 2)" d="M113.258 145.212C112.123 137.273 118.977 137.864 124.831 137.95L211.267 137.984C224.075 137.985 237.584 136.5 248.16 145.329C257.09 152.782 257.229 163.812 247.466 170.721L247.479 282.066C247.488 288.664 250.089 301.419 240.77 302.593C231.945 300.144 235.49 280.756 235.5 273.006L235.484 183.699C235.483 178.877 234.943 172.356 235.788 167.803C236.624 163.296 240.348 162.897 242.586 158.927C245.11 154.449 233.236 150.848 230.49 150.378C226.088 149.624 221.473 149.867 217.019 149.871L134.99 149.857C127.851 149.88 115.236 152.952 113.258 145.212Z"/>
	<path transform="scale(2 2)" d="M137.468 245.215C146.108 238.209 160.082 240.302 164.979 250.88C167.491 256.306 166.709 262.487 166.73 268.283C166.811 290.496 158.64 297.612 137.468 289.43C136.23 289.892 135.044 290.444 133.848 291.001C127.908 293.988 120.541 292.616 114.973 289.43C109.327 291.669 101.281 295.062 99.3185 286.645C97.756 279.942 106.288 281.702 108.264 278.072C109.272 276.219 108.91 256.972 108.191 254.96C107.522 253.089 103.395 253.276 101.66 252.256C93.3255 247.354 102.501 236.053 114.973 244.302C117.922 242.521 120.406 241.796 123.813 241.325C128.776 240.527 133.601 242.101 137.468 245.215Z"/>
	<path fill="#BCDEF6" transform="scale(2 2)" d="M148.19 253.054C150.623 253.023 153.72 253.789 154.501 256.48C155.223 258.968 155.368 277.409 154.103 279.201C153.295 280.347 151.621 280.487 150.354 280.685C148.429 280.756 144.846 281.045 143.994 278.72C143.151 276.422 142.979 257.078 144.093 255.305C144.974 253.901 146.671 253.396 148.19 253.054Z"/>
	<path fill="#BCDEF6" transform="scale(2 2)" d="M125.448 253.054C127.748 252.815 130.886 253.615 131.297 256.267C131.733 259.09 132.14 277.534 130.763 279.154C129.741 280.354 128.021 280.481 126.563 280.685C124.408 280.802 122.445 280.723 121.005 278.875C120.272 276.298 120 257.067 121.048 255.348C121.993 253.798 123.796 253.368 125.448 253.054Z"/>
	<path transform="scale(2 2)" d="M160.536 170.721C171.508 170.173 190.118 169.973 201.015 170.773C217.724 172.002 222.331 193.084 202.794 201.317C200.763 201.534 198.614 201.352 196.57 201.338L170.187 201.333C166.783 201.34 163.243 201.535 159.867 201.06C144.114 198.842 141.499 174.428 160.536 170.721Z"/>
	<path fill="#BCDEF6" transform="scale(2 2)" d="M161.393 182.509L187.597 182.505C192.118 182.502 196.749 182.176 201.25 182.509C204.061 184.489 204.551 187.393 201.25 189.489C196.382 189.753 162.702 189.975 160.903 189.104C158.289 187.838 158.656 183.42 161.393 182.509Z"/>
	<path transform="scale(2 2)" d="M184.871 302.593C193.369 301.908 195.016 304.901 201.435 307.888C204.631 309.375 214.042 310.212 208.858 317.98C203.125 326.569 192.347 314.168 186.476 314.28C178.493 314.433 175.921 326.56 160.536 315.277C154.412 318.073 151.497 320.276 144.608 317.417C134.377 313.172 139.784 319.96 131.805 325.907L131.518 326.119C121.394 329.53 123.947 322.24 117.429 319.71C114.266 318.482 110.207 319.739 107.285 317.979C98.6721 312.793 109.09 299.421 127.474 312.247C131.634 302.355 142.138 302.275 150.354 307.233C163.336 298.965 166.344 308.09 172.044 307.569C174.662 307.33 178.625 303.256 184.871 302.593Z"/>
	<path transform="scale(2 2)" d="M112.261 215.247C116.246 215.033 120.325 215.24 124.322 215.24L186.142 215.241C190.759 215.241 203.932 214.644 207.436 215.737C212.984 217.468 211.431 224.944 206.828 226.856C203.56 227.139 200.145 226.878 196.857 226.872L134.114 226.849C129.675 226.848 115.102 227.462 111.644 226.364C105.756 224.493 107.542 217.256 112.261 215.247Z"/>
	<path transform="scale(2 2)" d="M116.435 165.572C124.423 164.708 132.362 169.139 134.77 177.02C136.248 181.857 137.896 206.946 126.453 199.276C119.566 194.659 128.166 182.47 120.806 177.853L120.52 177.677C109.438 174.564 115.109 191.984 112.574 196.836C110.802 200.227 106.789 201.354 103.627 199.136C100.634 197.036 101.277 192.695 101.254 189.535C101.168 177.903 103.142 167.692 116.435 165.572Z"/>
	<path transform="scale(2 2)" d="M186.015 245.215C191.519 244.983 207.043 244.537 212.084 245.408C217.334 246.316 221.912 257.274 205.257 257.217C205.324 265.807 205.698 272.882 197.965 278.573C192.561 281.828 182.056 284.436 182.318 274.955C182.591 265.057 193.661 278.167 193.315 257.217C189.548 257.268 184.075 258.009 181.979 253.94C180.112 250.317 182.728 246.731 186.015 245.215Z"/>
</svg>
