<?xml version="1.0" encoding="utf-8" ?>
<svg xmlns="http://www.w3.org/2000/svg" xmlns:xlink="http://www.w3.org/1999/xlink" width="1024" height="1024">
	<path fill="#BCDEF6" transform="scale(2 2)" d="M137.661 198.501C143.432 195.677 141.835 188.485 141.809 183.158L141.793 166.098C141.796 145.096 141.581 124.07 141.795 103.071C141.989 83.945 149.49 80.2625 167.256 80.4482C162.327 84.0473 159.894 88.1622 156.751 93.2489C165.377 91.3056 174.011 91.5239 182.797 91.4981L300.271 90.7173C312.163 90.5085 323.972 90.1328 335.89 90.2434C344.387 90.3222 357.715 87.7885 359.952 99.2528C360.988 104.56 360.327 116.836 360.326 122.844L360.326 372.96C361.433 372.884 362.716 372.661 363.791 372.96C358.191 373.464 352.22 372.969 346.571 372.963L173.021 372.956C167.357 372.953 161.648 372.768 155.989 372.96C150.389 373.251 146.324 375.472 141.8 378.603C141.636 368.722 145.836 343.41 137.152 339.347C137.56 338.659 137.152 325.416 137.152 323.276C133.316 323.317 130.569 321.941 130.073 317.965C129.358 312.238 127.971 299.202 137.152 300.782C137.139 298.447 137.657 287.856 137.152 286.483C127.973 285.689 130.099 277.28 130.103 270.541L130.096 238.226C130.051 232.74 128.742 223.14 137.661 224.994L137.661 198.501Z"/>
	<path fill="#FEC302" transform="scale(2 2)" d="M137.661 198.501C143.432 195.677 141.835 188.485 141.809 183.158L141.793 166.098C141.796 145.096 141.581 124.07 141.795 103.071C141.989 83.945 149.49 80.2625 167.256 80.4482C162.327 84.0473 159.894 88.1622 156.751 93.2489C155.272 101.19 155.978 114.016 155.985 122.393L155.989 372.96C150.389 373.251 146.324 375.472 141.8 378.603C141.636 368.722 145.836 343.41 137.152 339.347C137.56 338.659 137.152 325.416 137.152 323.276C133.316 323.317 130.569 321.941 130.073 317.965C129.358 312.238 127.971 299.202 137.152 300.782C137.139 298.447 137.657 287.856 137.152 286.483C127.973 285.689 130.099 277.28 130.103 270.541L130.096 238.226C130.051 232.74 128.742 223.14 137.661 224.994L137.661 198.501Z"/>
	<path transform="scale(2 2)" d="M137.152 286.483C127.973 285.689 130.099 277.28 130.103 270.541L130.096 238.226C130.051 232.74 128.742 223.14 137.661 224.994C144.939 229.083 141.811 245.161 141.811 253.356L141.802 270.424C141.791 280.834 143.795 279.73 137.152 286.483Z"/>
	<path transform="scale(2 2)" d="M137.152 323.276C133.316 323.317 130.569 321.941 130.073 317.965C129.358 312.238 127.971 299.202 137.152 300.782C139.017 301.667 140.684 302.59 141.436 304.663C143.106 309.261 143.449 320.551 137.152 323.276Z"/>
	<path transform="scale(2 2)" d="M236.833 122.747C246.826 112.769 263.537 113.834 274.002 122.747C281.071 122.57 282.024 125.366 284.156 131.444C289.251 131.506 294.348 131.45 299.443 131.44C313.96 131.411 313.681 132.612 313.643 145.519C313.625 151.812 313.493 158.13 313.621 164.421C328.036 167.191 328.703 189.611 311.717 196.016L311.707 236.737C311.706 243.274 311.329 250.058 311.717 256.572C317.458 256.896 322.706 257.168 326.814 261.739C332.607 268.184 332.019 278.496 325.39 284.112C318.893 289.616 309.208 287.597 301.359 287.596L219.889 287.595C211.854 287.594 203.222 288.108 195.251 287.359L193.754 287.208C180.27 285.753 173.842 255.576 201.477 256.572C201.451 250.875 199.09 239.687 206.306 237.564C205.943 232.202 206.317 226.296 206.306 220.884C198.332 217.698 201.496 205.152 201.477 197.146C185.77 190.862 182.306 173.729 196.732 164.421L196.708 146.867C196.69 127.24 198.557 133.888 214.664 131.857C220.035 131.179 221.948 128.92 227.874 130.475C228.141 124.502 230.774 122.143 236.833 122.747Z"/>
	<path fill="#FEC302" transform="scale(2 2)" d="M219.89 191.532C225.103 191.128 226.837 193.924 230.281 197.146C224.751 203.612 226.728 212.524 226.728 220.449L226.736 256.572L212.791 256.572C212.711 249.662 215.897 238.381 206.306 237.564C205.943 232.202 206.317 226.296 206.306 220.884C216.335 220.244 212.806 204.727 212.791 197.146C215.554 195.788 217.32 193.168 219.89 191.532Z"/>
	<path fill="white" transform="scale(2 2)" d="M230.281 197.146C231.564 197.658 232.816 198.135 234.15 198.501L234.15 256.572L226.736 256.572L226.728 220.449C226.728 212.524 224.751 203.612 230.281 197.146Z"/>
	<path fill="#FEC302" transform="scale(2 2)" d="M256.147 127.706L262.787 127.706C268.397 132.578 269.337 133.717 276.953 134.856L277.22 135.094C289.335 145.98 284.073 142.14 302.483 142.603L302.483 162.681L293.758 162.681L207.836 162.681L207.836 143.548C212.791 143.541 217.794 143.737 222.743 143.594C230.23 143.378 228.313 139.253 233.029 137.097C235.576 135.933 238.629 136.454 241.001 134.718C248.744 129.055 241.366 127.552 256.147 127.706Z"/>
	<path fill="white" transform="scale(2 2)" d="M256.147 127.706L262.787 127.706C268.397 132.578 269.337 133.717 276.953 134.856L277.22 135.094C289.335 145.98 284.073 142.14 302.483 142.603L302.483 162.681L293.758 162.681C297.066 141.429 286.914 152.252 278.371 148.846C273.972 147.092 274.155 141.866 270.388 139.519C262.199 134.418 256.171 143.313 256.147 127.706Z"/>
	<path fill="#FEC302" transform="scale(2 2)" d="M278.267 198.501C281.354 196.888 283.193 193.983 286.106 192.273C292.257 188.661 294.344 194.868 299.526 196.016L300.166 196.123C301.309 197.878 300.447 212.87 300.449 215.989L300.453 256.572C298.22 256.601 295.991 256.631 293.758 256.572C288.678 256.866 283.367 256.577 278.267 256.572C278.216 250.966 280.691 242.03 274.002 239.53C274.001 237.719 274.443 227.558 274.002 226.643C279.623 224.699 278.299 217.992 278.289 213.36L278.267 198.501Z"/>
	<path fill="white" transform="scale(2 2)" d="M299.526 196.016L300.166 196.123C301.309 197.878 300.447 212.87 300.449 215.989L300.453 256.572C298.22 256.601 295.991 256.631 293.758 256.572C294.002 252.155 293.765 247.654 293.76 243.226L293.746 216.426C293.746 206.096 290.877 201.734 299.526 196.016Z"/>
	<path fill="#FEC302" transform="scale(2 2)" d="M245.54 198.028C254.516 193.015 252.669 186.068 264.127 197.146C265.113 197.489 266.07 197.802 267.09 198.028L267.075 212.957C267.075 219.254 265.562 226.061 274.002 226.643C274.443 227.558 274.001 237.719 274.002 239.53C264.263 238.881 267.45 250.331 267.09 256.572L260.039 256.572L245.54 256.572L245.54 198.028Z"/>
	<path fill="white" transform="scale(2 2)" d="M264.127 197.146C265.113 197.489 266.07 197.802 267.09 198.028L267.075 212.957C267.075 219.254 265.562 226.061 274.002 226.643C274.443 227.558 274.001 237.719 274.002 239.53C264.263 238.881 267.45 250.331 267.09 256.572L260.039 256.572C260.366 252.193 260.055 247.557 260.049 243.156L260.016 215.45C260.012 209.94 257.705 199.509 264.127 197.146Z"/>
	<path fill="white" transform="scale(2 2)" d="M236.833 187.724C231.237 180.74 221.611 177.242 213.29 182.035C210.96 183.377 209.275 185.975 206.412 186.194C202.814 186.47 199.264 183.541 199.174 179.878C198.998 172.676 207.682 174.345 212.37 174.359L227.874 174.376L299.582 174.368C302.418 174.366 309.207 173.345 311.438 175.507C318.006 181.873 308.469 185.085 302.483 185.034C295.789 179.759 291.295 179.76 283.046 180.261C279.222 182.46 276.741 184.266 274.002 187.724C272.939 187.806 271.848 187.74 270.781 187.724C267.114 184.139 264.768 182.367 260.039 180.261L250.804 180.261C246.176 182.102 243.816 183.912 240.557 187.724C239.321 187.779 238.071 187.733 236.833 187.724Z"/>
	<path fill="#FEC302" transform="scale(2 2)" d="M236.833 187.724C231.237 180.74 221.611 177.242 213.29 182.035C210.96 183.377 209.275 185.975 206.412 186.194C202.814 186.47 199.264 183.541 199.174 179.878C198.998 172.676 207.682 174.345 212.37 174.359L227.874 174.376L223.698 174.376C231.569 183.081 240.803 178.859 250.804 180.261C246.176 182.102 243.816 183.912 240.557 187.724C239.321 187.779 238.071 187.733 236.833 187.724Z"/>
	<path fill="#FEC302" transform="scale(2 2)" d="M260.039 180.261C263.897 179.642 278.936 180.028 283.046 180.261C279.222 182.46 276.741 184.266 274.002 187.724C272.939 187.806 271.848 187.74 270.781 187.724C267.114 184.139 264.768 182.367 260.039 180.261Z"/>
	<path fill="#FEC302" transform="scale(2 2)" d="M303.277 267.843C307.683 267.817 326.87 266.172 317.161 276.295C314.504 276.526 311.805 276.425 309.143 276.295C303.421 276.439 297.66 276.305 291.934 276.303L257.938 276.295L257.938 267.843C256.255 267.88 254.564 267.845 252.881 267.843L303.277 267.843Z"/>
	<path fill="white" transform="scale(2 2)" d="M303.277 267.843C307.683 267.817 326.87 266.172 317.161 276.295C314.504 276.526 311.805 276.425 309.143 276.295C306.327 276.165 303.935 270.118 303.277 267.843Z"/>
	<path fill="#FEC302" transform="scale(2 2)" d="M226.736 276.295L206.334 276.301C202.999 276.278 199.303 276.507 196.024 275.989C192.461 275.427 192.268 269.075 195.69 268.266C201.865 266.805 219.486 268.032 226.736 267.843C226.904 270.693 227 273.444 226.736 276.295Z"/>
	<path fill="white" transform="scale(2 2)" d="M226.736 267.843L252.881 267.843C254.564 267.845 256.255 267.88 257.938 267.843L257.938 276.295L226.736 276.295C227 273.444 226.904 270.693 226.736 267.843Z"/>
	<path transform="scale(2 2)" d="M174.041 324.725L224.981 324.727C233.152 324.724 241.41 324.419 249.567 324.696C256.512 324.931 258 334.26 250.804 336.237L183.506 336.255C180.473 336.265 177.359 336.416 174.333 336.207C166.322 335.653 166.633 325.69 174.041 324.725Z"/>
	<path transform="scale(2 2)" d="M317.161 94.8165C342.617 94.0189 352.307 93.1803 352.496 121.661C352.534 127.426 354.76 136.764 347.567 138.79C336.382 138.041 342.996 119.494 340.795 110.924C338.406 101.62 320.861 109.179 314.583 105.199C309.6 102.04 311.72 95.9064 317.161 94.8165Z"/>
	<path transform="scale(2 2)" d="M290.277 341.229L322.36 341.232C326.193 341.234 338.204 340.711 341.04 341.63C347.142 343.608 346.403 350.572 341.073 352.785C325.896 352.968 307.105 353.662 292.096 352.822C284.644 352.405 282.933 343.745 290.277 341.229Z"/>
	<path transform="scale(2 2)" d="M304.515 319.008L326.72 318.999C331 318.981 335.489 318.697 339.751 319.07C347.082 319.712 346.654 328.634 340.254 330.559L317.186 330.567C313.42 330.565 304.513 331.669 301.296 329.58C296.518 326.479 298.147 319.739 304.515 319.008Z"/>
	<path fill="#FEC302" transform="scale(2 2)" d="M370.488 372.96L370.484 217.946C370.478 212.894 368.753 197.952 372.439 194.328C374.531 192.27 378.858 192.955 380.595 195.163C383.219 198.498 381.787 232.55 381.789 238.99L381.826 374.088C381.907 384.775 381.241 380.392 376.548 389.164C369.285 402.74 371.172 419.25 379.828 431.665C389.11 431.634 388.057 442.451 380.891 443.054C376.629 443.412 372.213 442.904 367.93 442.891L301.111 442.892C293.385 442.895 275.242 446.517 276.031 435.669C269.69 435.709 263.374 435.384 257.036 435.669C259.405 445.498 242.544 442.898 237.523 442.902C229.834 442.908 215.707 446.043 215.157 436.21C209.033 436.228 202.96 436.324 196.849 435.881L196.672 436.12L196.732 436.21C195.933 439.336 194.503 441.115 191.855 442.89L167.864 442.895C162.526 442.897 156.484 443.385 151.273 442.218C129.173 437.269 130.102 418.025 130.111 400.971L130.113 368.805C130.116 364.001 130.186 359.196 130.115 354.393C130.023 348.134 128.001 339.305 137.152 339.347C145.836 343.41 141.636 368.722 141.8 378.603C146.324 375.472 150.389 373.251 155.989 372.96C161.648 372.768 167.357 372.953 173.021 372.956L346.571 372.963C352.22 372.969 358.191 373.464 363.791 372.96C366.045 373.126 368.235 373.155 370.488 372.96Z"/>
	<path transform="scale(2 2)" d="M370.488 372.96L370.484 217.946C370.478 212.894 368.753 197.952 372.439 194.328C374.531 192.27 378.858 192.955 380.595 195.163C383.219 198.498 381.787 232.55 381.789 238.99L381.826 374.088C381.907 384.775 381.241 380.392 376.548 389.164C369.285 402.74 371.172 419.25 379.828 431.665C389.11 431.634 388.057 442.451 380.891 443.054C376.629 443.412 372.213 442.904 367.93 442.891L301.111 442.892C293.385 442.895 275.242 446.517 276.031 435.669C278.477 430.096 284.297 431.611 289.35 431.644L342.371 431.667C348.841 431.668 355.333 431.813 361.8 431.665C343.553 422.923 345.41 398.344 356.887 384.435L167.256 384.435C160.365 384.391 153.837 383.556 148.471 388.847C140.457 396.749 138.538 419.152 146.856 427.409C151.587 432.106 156.694 431.65 162.818 431.665L182.831 431.649C188.622 431.624 193.77 429.858 196.732 436.21C195.933 439.336 194.503 441.115 191.855 442.89L167.864 442.895C162.526 442.897 156.484 443.385 151.273 442.218C129.173 437.269 130.102 418.025 130.111 400.971L130.113 368.805C130.116 364.001 130.186 359.196 130.115 354.393C130.023 348.134 128.001 339.305 137.152 339.347C145.836 343.41 141.636 368.722 141.8 378.603C146.324 375.472 150.389 373.251 155.989 372.96C161.648 372.768 167.357 372.953 173.021 372.956L346.571 372.963C352.22 372.969 358.191 373.464 363.791 372.96C366.045 373.126 368.235 373.155 370.488 372.96Z"/>
	<path fill="white" transform="scale(2 2)" d="M356.887 384.435C359.949 384.412 363.019 384.342 366.08 384.435C358.503 401.089 359.251 414.418 366.08 431.665C364.659 431.674 363.218 431.729 361.8 431.665C343.553 422.923 345.41 398.344 356.887 384.435Z"/>
	<path transform="scale(2 2)" d="M215.157 436.21C217.63 428.583 232.369 431.661 239.624 431.66C247.304 431.66 252.796 429.048 257.036 435.669C259.405 445.498 242.544 442.898 237.523 442.902C229.834 442.908 215.707 446.043 215.157 436.21Z"/>
	<path transform="scale(2 2)" d="M195.565 400.815L320.902 400.807C325.22 400.805 338.169 399.511 341.409 402.479C345.862 406.557 342.493 412.361 335.563 412.361L210.258 412.367C204.644 412.369 198.9 412.609 193.298 412.234C186.525 411.781 183.941 401.368 195.565 400.815Z"/>
	<path transform="scale(2 2)" d="M137.661 198.501C126.872 200.541 130.107 179.845 130.108 173.331L130.102 111.16C130.102 105.098 129.666 98.6121 130.743 92.6425C136.135 62.7564 171.06 69.0402 193.146 68.9087L345.497 68.8732C363.193 68.7907 380.815 75.0038 381.762 96.1082C382.173 105.246 382.953 130.207 381.707 139.099C380.916 144.743 373.037 146.671 370.939 140.732C370.024 138.142 370.496 134.275 370.494 131.516L370.508 109.739C370.521 104.814 371.16 98.607 369.992 93.8717C365.952 77.4991 349.3 80.4328 336.793 80.4397L167.256 80.4482C149.49 80.2625 141.989 83.945 141.795 103.071C141.581 124.07 141.796 145.096 141.793 166.098L141.809 183.158C141.835 188.485 143.432 195.677 137.661 198.501Z"/>
	<path transform="scale(2 2)" d="M374.803 158.308C384.229 157.462 381.846 170.412 381.796 176.308C380.709 178.231 379.45 179.462 377.384 180.261C365.783 180.47 369.323 160.345 374.803 158.308Z"/>
</svg>
