<?xml version="1.0" encoding="utf-8" ?>
<svg xmlns="http://www.w3.org/2000/svg" xmlns:xlink="http://www.w3.org/1999/xlink" width="1024" height="1024">
	<path fill="white" transform="scale(2 2)" d="M66.5553 195.383C60.6405 182.377 65.5169 167.377 80.6466 165.346C84.4847 164.831 116.088 164.822 118.831 165.482C120.829 165.963 121.774 167.095 122.825 168.783C122.862 169.929 122.84 171.073 122.825 172.219C127.214 172.32 131.677 171.723 136.032 172.464L136.346 172.219C135.582 161.72 152.119 165.217 159.749 165.222C174.789 165.233 187.453 163.008 197.94 176.251C209.197 162.399 220.379 165.202 236.25 165.227L306.367 165.232C315.666 165.234 326.19 163.501 333.914 169.866C338.787 173.882 344.228 182.871 336.192 186.706C334.564 189.442 333.81 192.605 332.304 195.383C352.506 198.958 350.471 214.732 350.47 231.08L350.452 266.871C350.449 270.301 350.048 276.222 350.461 279.428L350.592 279.582C351.13 276.154 350.41 272.314 350.748 268.74L350.89 268.649L350.974 269.176L351.237 269.086C351.476 261.057 351.055 261.096 352.759 253.233L353.598 252.629L353.649 252.232L353.07 251.996C352.346 250.251 352.621 246.586 352.958 244.73C353.109 246.797 352.955 248.922 353.181 250.967L353.582 250.808C354.55 248.246 352.875 239.262 356.651 237.179C358.71 236.044 360.654 236.51 361.839 234.286C363.383 234.545 363.208 235.29 363.639 236.552L362.68 236.906C363.164 237.061 363.564 237.214 363.961 237.553L363.934 237.947L363.316 238.067C363.405 241.164 363.348 239.546 363.173 242.678C363.131 243.448 363.628 248.19 363.785 249.236L364.226 249.333C364.251 251.733 363.99 250.917 366.571 252.146L363.967 252.179L363.972 252.401C366.049 253.682 369.438 257.378 368.351 260.144L368.673 260.322C372.651 262.568 370.249 268.249 370.543 272.351L370.695 272.39L371.202 271.166C371.545 284.628 371.175 298.107 371.264 311.571L371.325 325.576C371.36 327.975 371.718 330.828 371.393 333.172L370.879 331.265C370.428 334.328 370.737 337.789 370.737 340.9C370.737 353.683 372.6 367.04 370.92 379.749C370.831 378.299 371.191 354.252 369.926 364.877C369.554 363.913 369.897 363.188 369.47 362.269L369.273 362.304C368.007 372.098 371.609 381.192 370.669 386.543C370.404 386.253 370.449 385.888 370.396 385.506L370.596 385.563L370.17 385.792C369.729 388.396 364.577 395.03 361.661 395.826C354.886 397.675 349.994 396.715 345.685 391.053C345.405 391.337 345.48 391.538 345.447 391.924L345.032 390.959L344.626 391.018C342.982 386.598 337.732 384.362 343.48 379.901L343.341 379.917C345.702 378.572 348.108 378.476 348.922 375.458C349.553 373.119 348.089 370.826 350.527 369.626C350.263 367.972 352.167 368.767 351.348 362.966L351.033 362.828L351.314 362.77L350.902 362.487L351.265 362.555L351.102 362.528L350.837 363.067C350.25 358.513 350.441 353.871 350.453 349.286L350.478 332.829C350.5 330.119 351.071 326.361 350.487 323.754C349.794 320.659 342.032 318.301 341.714 321.872C345.085 319.375 347.966 320.728 350.461 323.749C350.852 329.974 350.459 336.41 350.459 342.664L350.472 356.084C350.501 368.325 348.351 379.666 332.304 379.25C318.44 379.073 304.551 379.253 290.685 379.255C285.07 379.255 268.319 381.591 266.192 375.476C264.794 375.926 255.926 375.483 253.555 375.476C255.254 365.311 240.52 368.225 233.974 368.206C220.975 368.169 204.817 366.717 197.94 380.777C189.322 368.915 179.438 368.171 166.211 368.183L86.6945 368.195C79.2887 368.105 70.4507 370.219 65.0113 364.067C64.519 356.009 67.4515 340.311 62.0412 335.149C62.2996 331.705 62.1565 328.041 62.0412 324.581L59.3011 325.381C50.7032 323.334 50.6195 303.493 62.0412 305.915C62.0028 305.054 62.122 296.089 62.0412 295.972C59.515 296.608 55.852 296.034 54.5848 293.465C53.0824 290.418 53.3157 225.676 53.9143 215.303C54.3923 207.022 58.3277 198.62 66.5553 195.383Z"/>
	<path transform="scale(2 2)" d="M66.5553 195.383C60.6405 182.377 65.5169 167.377 80.6466 165.346C84.4847 164.831 116.088 164.822 118.831 165.482C120.829 165.963 121.774 167.095 122.825 168.783C122.862 169.929 122.84 171.073 122.825 172.219C127.214 172.32 131.677 171.723 136.032 172.464L136.346 172.219C135.582 161.72 152.119 165.217 159.749 165.222C174.789 165.233 187.453 163.008 197.94 176.251C209.197 162.399 220.379 165.202 236.25 165.227L306.367 165.232C315.666 165.234 326.19 163.501 333.914 169.866C338.787 173.882 344.228 182.871 336.192 186.706C334.564 189.442 333.81 192.605 332.304 195.383C352.506 198.958 350.471 214.732 350.47 231.08L350.452 266.871C350.449 270.301 350.048 276.222 350.461 279.428C339.489 290.029 339.5 275.204 339.479 268.214L339.463 231.175C339.483 212.578 343.669 206.56 322.059 206.611L96.3625 206.61C87.2571 206.391 82.605 207.692 73.765 203.988C61.2877 209.607 65.0072 224.378 65.0062 236.313L65.008 275.986C65.0101 281.867 67.0521 291.597 62.0412 295.972C59.515 296.608 55.852 296.034 54.5848 293.465C53.0824 290.418 53.3157 225.676 53.9143 215.303C54.3923 207.022 58.3277 198.62 66.5553 195.383Z"/>
	<path fill="#FEC302" transform="scale(2 2)" d="M235.38 176.251L310.42 176.248C336.88 176.274 324.457 182.634 333.452 186.706C334.365 186.719 335.281 186.752 336.192 186.706C334.564 189.442 333.81 192.605 332.304 195.383C322.003 195.818 311.387 195.379 301.057 195.38L236.697 195.383L203.964 195.383L203.957 194.024C203.913 179.67 212.894 176.293 225.777 176.249L235.38 176.251Z"/>
	<path fill="#FEC302" transform="scale(2 2)" d="M136.346 172.219C139.146 177.499 143.416 176.282 148.605 176.254L164.778 176.231C178.94 176.228 193.246 177.485 192.263 195.383L147.189 195.383L91.3043 195.409C88.4606 195.432 85.4526 195.632 82.6338 195.202C75.2947 194.081 72.4245 183.513 77.8686 178.637C82.2812 174.686 96.5435 175.866 103.307 176.251C109.759 176.106 119.409 178.914 122.825 172.219C127.214 172.32 131.677 171.723 136.032 172.464L136.346 172.219Z"/>
	<path fill="#BCDEF6" transform="scale(2 2)" d="M73.765 203.988C82.605 207.692 87.2571 206.391 96.3625 206.61C91.8758 206.963 87.2198 206.58 82.7098 206.61L82.7058 344.624C82.7066 351.572 81.4716 361.638 83.9461 368.195C84.7831 368.149 85.9063 367.935 86.6945 368.195C79.2887 368.105 70.4507 370.219 65.0113 364.067C64.519 356.009 67.4515 340.311 62.0412 335.149C62.2996 331.705 62.1565 328.041 62.0412 324.581L59.3011 325.381C50.7032 323.334 50.6195 303.493 62.0412 305.915C62.0028 305.054 62.122 296.089 62.0412 295.972C67.0521 291.597 65.0101 281.867 65.008 275.986L65.0062 236.313C65.0072 224.378 61.2877 209.607 73.765 203.988Z"/>
	<path transform="scale(2 2)" d="M59.3011 325.381C50.7032 323.334 50.6195 303.493 62.0412 305.915C66.5379 309.794 66.6992 321.007 62.0412 324.581L59.3011 325.381Z"/>
	<path transform="scale(2 2)" d="M341.714 321.872C345.085 319.375 347.966 320.728 350.461 323.749C350.852 329.974 350.459 336.41 350.459 342.664L350.472 356.084C350.501 368.325 348.351 379.666 332.304 379.25C318.44 379.073 304.551 379.253 290.685 379.255C285.07 379.255 268.319 381.591 266.192 375.476C264.753 367.088 271.758 368.086 277.742 368.169C296.007 368.422 314.361 368.619 332.617 368.244C335.421 368.187 337.648 367.568 338.949 364.819C342.372 357.585 335.885 328.046 341.714 321.872Z"/>
	<path transform="scale(2 2)" d="M110.996 219.294C120.798 218.48 118.688 228.34 118.74 235.144C122.947 235.12 129.609 234.581 133.568 235.314C137.863 236.109 140.014 241.224 136.658 244.541C133.685 247.481 123.075 246.306 118.74 246.325L118.74 258.538C122.939 258.573 133.357 257.388 136.369 260.024C139.999 263.201 137.696 268.903 133.335 269.757C129.93 270.424 122.544 269.808 118.74 269.8L118.74 282.452C126.181 282.558 136.258 279.379 138.328 287.984C136.385 296.426 125.172 293.7 118.74 293.664L118.74 322.802C122.948 322.823 133.077 321.717 136.162 324.342C139.839 327.471 137.947 333.107 133.534 334.101C130.029 334.89 122.621 334.335 118.74 334.321C118.774 340.414 121.593 356.063 110.996 354.231C105.218 350.284 107.459 340.375 107.488 334.321C103.153 334.346 91.981 335.327 88.8633 332.52C86.7907 330.655 86.5641 326.807 88.5931 324.821C91.6772 321.803 103.075 322.783 107.488 322.802L107.488 293.664C99.9696 293.544 88.9162 296.645 86.6945 287.984C88.7211 279.47 100.298 282.423 107.488 282.452L107.488 269.8C103.152 269.825 91.5777 270.832 88.4957 267.977C84.9934 264.733 87.2412 259.582 91.4815 258.718C95.0827 257.983 103.4 258.516 107.488 258.538L107.488 246.325C103.096 246.229 91.402 247.44 88.2743 244.708C84.831 241.701 86.9159 236.25 91.0529 235.358C94.7079 234.57 103.382 235.141 107.488 235.144C107.477 230.091 105.553 222.144 110.996 219.294Z"/>
	<path transform="scale(2 2)" d="M305.762 270.567C308.059 270.307 310.497 270.368 312.121 272.317C316.481 277.546 308.238 283.327 304.928 286.587C301.726 289.742 298.566 293.298 294.952 295.972L294.952 307.249L308.724 307.221C311.849 307.187 315.277 306.84 318.35 307.364C324.235 308.368 323.663 317.101 318.196 318.197C315.329 318.772 312.097 318.505 309.171 318.503L294.952 318.48L294.952 331.498C298.975 331.47 305.832 330.743 309.445 332.242C320.566 336.855 320.87 360.827 309.868 354.76C305.816 352.525 306.851 346.784 305.762 342.867C302.092 342.665 298.325 342.846 294.644 342.851L272.881 342.867C271.924 346.589 272.169 351.041 269.888 354.231C268.729 355.144 267.586 355.497 266.192 355.868C256.648 353.553 260.644 339.894 265.684 334.94C270.377 330.325 277.667 331.465 283.722 331.498L283.722 318.48L269.054 318.5C265.702 318.501 260.006 319.371 257.24 316.964C253.955 314.106 255.315 308.439 259.538 307.529C262.394 306.913 265.702 307.219 268.625 307.221L283.722 307.249L283.722 295.972C279.748 292.065 270.401 283.341 267.596 278.918C264.415 273.903 270.473 268.515 275.223 271.715C278.701 274.059 286.13 282.389 289.516 285.893C292.574 282.805 302.761 272.367 305.762 270.567Z"/>
	<path transform="scale(2 2)" d="M208.778 220.299C218.473 219.522 215.766 231.388 215.769 237.553L215.774 317.802C215.773 327.519 216.023 337.31 215.719 347.02C215.585 351.299 214.47 353.165 210.124 354.231C202.05 352.255 204.615 344.3 204.621 337.726L204.635 312.427C200.776 308.987 196.262 306.442 192.263 303.186C186.978 300.344 178.679 291.68 188.115 289.556C192.435 288.583 200.35 295.732 204.201 297.993L204.635 298.246L204.635 275.714C198.895 272.458 193.568 267.564 188.616 263.235C188.57 263.283 188.525 263.333 188.478 263.38L188.243 263.618C184.747 267.187 179.787 265.195 178.692 260.379C177.617 255.649 183.516 246.484 188.791 249.393C192.413 251.39 200.619 258.884 204.635 261.923C204.63 253.017 201.022 223.761 208.778 220.299Z"/>
	<path transform="scale(2 2)" d="M235.38 220.299C244.457 220.959 241.663 232.677 241.697 238.936L241.713 325.712C241.715 334.337 245.055 350.777 236.697 354.231C227.891 355.101 230.404 341.113 230.403 336.001L230.381 234.669C230.358 229.499 228.527 221.581 235.38 220.299Z"/>
	<path transform="scale(2 2)" d="M289.032 220.299C299.275 217.623 307.585 228.677 308.885 238.037C312.822 238.002 322.022 237.07 324.865 239.783C326.92 241.743 326.644 245.653 324.624 247.532C321.636 250.312 309.944 249.266 305.762 249.239C300.8 252.614 298.472 255.507 292.241 256.416C285.629 257.296 279.679 253.929 275.244 249.239C270.547 248.945 260.396 250.499 256.771 247.418C254.544 245.526 254.877 241.769 256.837 239.801C259.601 237.028 268.184 238.006 271.968 238.037C273.224 228.158 278.195 220.423 289.032 220.299Z"/>
	<path fill="white" transform="scale(2 2)" d="M289.62 231.087Q289.792 231.074 289.964 231.069Q290.136 231.065 290.308 231.068Q290.48 231.072 290.651 231.084Q290.823 231.096 290.994 231.116Q291.165 231.136 291.335 231.164Q291.505 231.192 291.673 231.229Q291.841 231.265 292.007 231.31Q292.173 231.354 292.337 231.407Q292.501 231.459 292.662 231.519Q292.824 231.58 292.982 231.648Q293.14 231.716 293.294 231.791Q293.449 231.867 293.6 231.949Q293.751 232.032 293.898 232.122Q294.044 232.212 294.186 232.309Q294.329 232.406 294.466 232.51Q294.603 232.613 294.736 232.724Q294.868 232.834 294.995 232.95Q295.121 233.067 295.242 233.189Q295.363 233.311 295.478 233.439Q295.593 233.567 295.702 233.701Q295.811 233.834 295.913 233.973Q296.015 234.111 296.11 234.255Q296.206 234.398 296.294 234.545Q296.382 234.693 296.463 234.845Q296.545 234.997 296.618 235.152Q296.692 235.308 296.758 235.467Q296.824 235.625 296.883 235.787Q296.941 235.949 296.992 236.114Q297.043 236.278 297.085 236.445Q297.128 236.612 297.162 236.78Q297.197 236.949 297.223 237.119Q297.25 237.289 297.268 237.46Q297.286 237.631 297.296 237.803Q297.306 237.975 297.308 238.147Q297.309 238.319 297.303 238.491Q297.296 238.663 297.281 238.834Q297.266 239.006 297.243 239.176Q297.22 239.347 297.189 239.516Q297.158 239.685 297.118 239.853Q297.079 240.02 297.031 240.186Q296.984 240.351 296.929 240.514Q296.873 240.677 296.81 240.837Q296.747 240.997 296.676 241.154Q296.606 241.311 296.527 241.465Q296.449 241.618 296.364 241.767Q296.278 241.917 296.186 242.062Q296.093 242.207 295.994 242.347Q295.894 242.488 295.788 242.623Q295.682 242.759 295.57 242.889Q295.457 243.019 295.339 243.144Q295.22 243.269 295.095 243.387Q294.971 243.506 294.841 243.619Q294.711 243.732 294.575 243.838Q294.44 243.944 294.3 244.044Q294.16 244.144 294.015 244.237Q293.87 244.329 293.72 244.415Q293.571 244.501 293.418 244.579Q293.265 244.658 293.108 244.729Q292.951 244.8 292.791 244.863Q292.631 244.926 292.468 244.982Q292.305 245.038 292.14 245.085Q291.975 245.133 291.807 245.173Q291.64 245.212 291.471 245.244Q291.302 245.276 291.131 245.299Q290.895 245.331 290.657 245.348Q290.419 245.365 290.18 245.365Q289.941 245.366 289.703 245.351Q289.465 245.336 289.229 245.305Q288.992 245.274 288.758 245.227Q288.524 245.18 288.294 245.118Q288.064 245.056 287.838 244.978Q287.612 244.901 287.392 244.808Q287.172 244.716 286.959 244.609Q286.745 244.503 286.54 244.382Q286.334 244.261 286.137 244.127Q285.939 243.993 285.752 243.846Q285.564 243.698 285.386 243.539Q285.208 243.38 285.042 243.209Q284.875 243.038 284.72 242.857Q284.565 242.675 284.423 242.484Q284.281 242.293 284.151 242.092Q284.022 241.892 283.906 241.683Q283.791 241.474 283.689 241.258Q283.588 241.042 283.501 240.82Q283.414 240.598 283.342 240.371Q283.27 240.143 283.213 239.911Q283.157 239.679 283.116 239.444Q283.075 239.209 283.05 238.972Q283.024 238.735 283.015 238.496Q283.006 238.258 283.012 238.02Q283.019 237.781 283.041 237.544Q283.064 237.306 283.102 237.071Q283.14 236.835 283.194 236.603Q283.248 236.37 283.317 236.142Q283.386 235.913 283.471 235.69Q283.555 235.467 283.654 235.25Q283.753 235.033 283.866 234.823Q283.979 234.613 284.106 234.411Q284.233 234.209 284.374 234.016Q284.514 233.823 284.667 233.639Q284.819 233.456 284.984 233.283Q285.148 233.111 285.324 232.949Q285.5 232.788 285.686 232.639Q285.872 232.489 286.068 232.353Q286.264 232.216 286.468 232.093Q286.672 231.97 286.884 231.861Q287.096 231.751 287.315 231.657Q287.534 231.562 287.759 231.482Q287.984 231.401 288.213 231.337Q288.443 231.272 288.676 231.222Q288.91 231.173 289.146 231.139Q289.382 231.105 289.62 231.087Z"/>
	<path transform="scale(2 2)" d="M160.389 221.75C169.34 221.162 166.574 237.287 166.575 243.314L166.59 284.886C166.637 290.461 168.036 294.932 162.589 298.246C153.11 298.54 155.444 286.834 155.445 280.504L155.441 261.495C155.439 250.511 155.044 239.367 155.513 228.4C155.679 224.53 156.662 223.169 160.389 221.75Z"/>
	<path transform="scale(2 2)" d="M160.389 309.554C162.818 309.506 165.185 310.388 166.155 312.819C166.873 314.62 166.777 344.037 166.586 347.841C166.405 351.469 165.495 353.162 161.809 354.231C159.344 354.262 156.861 353.064 155.982 350.612C154.976 347.806 155.248 320.276 155.545 315.797C155.78 312.257 156.732 310.488 160.389 309.554Z"/>
	<path transform="scale(2 2)" d="M344.65 293.664C353.172 293.895 352.649 307.546 345.411 309.554C337.172 308.853 336.818 294.761 344.65 293.664Z"/>
	<path fill="#FEC302" transform="scale(2 2)" d="M375.495 150.306C368.3 145.411 371.728 122.439 376.245 116.339C383.05 107.15 391.24 106.605 401.489 106.618L429.81 106.64C449.673 106.602 459.057 112.155 458.939 134.688L458.91 164.478C458.916 170.485 460.749 178.873 452.315 179.214L452.02 179.449C452.121 181.175 452.085 189.364 452.946 189.367C455.657 189.649 457.385 190.742 458.894 192.968C459.074 198.185 460.499 206.758 453.012 206.628L452.315 206.61C452.448 210.282 452.816 214.287 452.315 217.927C459.605 218.174 459.381 223.746 459.168 229.713C458.96 235.543 458.498 238.287 452.315 238.037C451.649 239.04 452.42 248.175 452.315 250.147C461.747 250.841 458.927 261.005 458.901 268.5L458.894 357.425C458.893 368.176 458.651 378.978 458.894 389.722C461.09 392.809 462.329 395.865 463.389 399.491C466.936 399.678 471.654 398.758 474.252 401.749C477.068 404.992 475.076 408.884 471.901 410.742C458.888 411.024 445.802 410.742 432.782 410.741L74.3818 410.756C69.9052 410.779 67.8637 409.806 66.5553 405.487C67.1195 403.398 67.7299 402.025 69.1394 400.365C64.3427 394.314 63.4612 385.827 67.665 379.25C60.6491 375.893 54.9338 371.638 54.095 363.468C53.4416 357.104 49.6552 331.13 62.0412 335.149C67.4515 340.311 64.519 356.009 65.0113 364.067C70.4507 370.219 79.2887 368.105 86.6945 368.195L166.211 368.183C179.438 368.171 189.322 368.915 197.94 380.777C204.817 366.717 220.975 368.169 233.974 368.206C240.52 368.225 255.254 365.311 253.555 375.476C255.926 375.483 264.794 375.926 266.192 375.476C268.319 381.591 285.07 379.255 290.685 379.255C304.551 379.253 318.44 379.073 332.304 379.25C334.606 382.812 334.357 384.302 334.91 388.235C342.778 385.313 344.08 393.985 342.407 399.491L369.845 399.491C369.45 398.248 369.174 396.954 368.859 395.688C369.501 393.452 370.535 391.678 371.755 389.722L371.737 169.854C371.737 165.088 370.957 162.573 375.495 159.796C375.387 156.645 375.486 153.461 375.495 150.306ZM400.5 383.763C400.483 389.003 400.395 394.253 400.5 399.491L435.294 399.48C439.858 399.478 446.868 399.069 451.105 399.491C451.475 399.435 451.266 399.498 451.703 399.222C451.014 392.417 439.098 390.628 441.715 382.894C438.564 382.7 436.052 379.983 432.657 379.737C430.117 388.625 425.284 384.472 419.142 382.942C413.324 381.492 406.229 382.255 400.5 383.763ZM400.5 132.017C408.454 125.81 419.052 124.917 427.955 129.852C436.187 134.416 436.669 136.652 447.627 134.175L447.687 132.473C448.127 116.232 437.254 117.951 424.73 117.976L399.856 117.99C400.008 122.55 399.725 127.529 400.5 132.017Z"/>
	<path transform="scale(2 2)" d="M375.495 159.796C376.847 159.784 378.209 159.736 379.56 159.796C383.764 162.799 382.856 166.392 382.843 171.026L382.816 379.25C388.571 375.963 393.929 373.41 400.5 372.101C407.44 370.723 430.71 369.993 432.657 379.737C430.117 388.625 425.284 384.472 419.142 382.942C413.324 381.492 406.229 382.255 400.5 383.763C400.483 389.003 400.395 394.253 400.5 399.491L435.294 399.48C439.858 399.478 446.868 399.069 451.105 399.491C451.475 399.435 451.266 399.498 451.703 399.222C451.014 392.417 439.098 390.628 441.715 382.894C443.445 381.113 445.122 380.594 447.627 380.777L447.624 269.633C447.615 262.681 445.135 252.953 452.315 250.147C461.747 250.841 458.927 261.005 458.901 268.5L458.894 357.425C458.893 368.176 458.651 378.978 458.894 389.722C461.09 392.809 462.329 395.865 463.389 399.491C466.936 399.678 471.654 398.758 474.252 401.749C477.068 404.992 475.076 408.884 471.901 410.742C458.888 411.024 445.802 410.742 432.782 410.741L74.3818 410.756C69.9052 410.779 67.8637 409.806 66.5553 405.487C67.1195 403.398 67.7299 402.025 69.1394 400.365C64.3427 394.314 63.4612 385.827 67.665 379.25C60.6491 375.893 54.9338 371.638 54.095 363.468C53.4416 357.104 49.6552 331.13 62.0412 335.149C67.4515 340.311 64.519 356.009 65.0113 364.067C70.4507 370.219 79.2887 368.105 86.6945 368.195L166.211 368.183C179.438 368.171 189.322 368.915 197.94 380.777C204.817 366.717 220.975 368.169 233.974 368.206C240.52 368.225 255.254 365.311 253.555 375.476C255.926 375.483 264.794 375.926 266.192 375.476C268.319 381.591 285.07 379.255 290.685 379.255C304.551 379.253 318.44 379.073 332.304 379.25C334.606 382.812 334.357 384.302 334.91 388.235C342.778 385.313 344.08 393.985 342.407 399.491L369.845 399.491C369.45 398.248 369.174 396.954 368.859 395.688C369.501 393.452 370.535 391.678 371.755 389.722L371.737 169.854C371.737 165.088 370.957 162.573 375.495 159.796Z"/>
	<path fill="#FEC302" transform="scale(2 2)" d="M253.555 375.476C255.926 375.483 264.794 375.926 266.192 375.476C268.319 381.591 285.07 379.255 290.685 379.255C304.551 379.253 318.44 379.073 332.304 379.25C334.606 382.812 334.357 384.302 334.91 388.235C330.921 403.362 317.341 399.501 304.788 399.502C293.158 399.503 281.516 399.619 269.888 399.491L203.964 399.491C201.723 382.963 213.772 379.249 227.543 379.239L239.4 379.25C244.801 379.152 250.366 381.007 253.555 375.476Z"/>
	<path fill="#BCDEF6" transform="scale(2 2)" d="M379.56 399.491C383.287 391.204 391.981 385.972 400.5 383.763C400.483 389.003 400.395 394.253 400.5 399.491L435.294 399.48C439.858 399.478 446.868 399.069 451.105 399.491C449.144 399.853 446.63 399.549 444.619 399.534L379.56 399.491Z"/>
	<path fill="#FEC302" transform="scale(2 2)" d="M98.2211 379.25L167.93 379.24C181.761 379.235 192.595 382.171 192.263 399.491L130.439 399.486C120.061 399.485 109.662 399.346 99.2874 399.491C92.7079 399.53 85.0002 400.277 79.6286 395.694C75.7108 392.351 74.8407 386.559 78.6465 382.774C83.5038 377.942 91.9109 379.224 98.2211 379.25Z"/>
	<path transform="scale(2 2)" d="M375.495 150.306C368.3 145.411 371.728 122.439 376.245 116.339C383.05 107.15 391.24 106.605 401.489 106.618L429.81 106.64C449.673 106.602 459.057 112.155 458.939 134.688L458.91 164.478C458.916 170.485 460.749 178.873 452.315 179.214C452.295 179.196 452.279 179.172 452.255 179.161C445.726 176.305 447.597 171.057 447.607 165.048L447.627 146.18C440.613 146.197 434.416 147.108 428.015 143.433C412 134.237 416.547 137.811 400.756 144.795L400.5 144.905C393.377 146.692 389.607 145.657 382.816 146.18C381.054 149.104 378.781 150.223 375.495 150.306ZM400.5 132.017C408.454 125.81 419.052 124.917 427.955 129.852C436.187 134.416 436.669 136.652 447.627 134.175L447.687 132.473C448.127 116.232 437.254 117.951 424.73 117.976L399.856 117.99C400.008 122.55 399.725 127.529 400.5 132.017Z"/>
	<path fill="#BCDEF6" transform="scale(2 2)" d="M400.5 132.017C397.006 133.871 383.143 137.766 383.016 132.27C382.76 121.146 389.896 117.872 399.856 117.99C400.008 122.55 399.725 127.529 400.5 132.017Z"/>
	<path transform="scale(2 2)" d="M452.315 217.927C459.605 218.174 459.381 223.746 459.168 229.713C458.96 235.543 458.498 238.287 452.315 238.037C446.633 238.297 443.291 221.152 452.315 217.927Z"/>
	<path transform="scale(2 2)" d="M452.946 189.367C455.657 189.649 457.385 190.742 458.894 192.968C459.074 198.185 460.499 206.758 453.012 206.628L452.315 206.61C444.531 205.536 445.01 190.09 452.946 189.367Z"/>
	<path transform="scale(2 2)" d="M413.348 243.3C416.111 242.969 418.623 243.724 419.88 246.454C420.831 248.518 420.954 275.783 420.021 277.78C419.304 279.313 418.043 279.923 416.549 280.535C414.298 280.958 411.531 280.706 410.185 278.571C408.429 275.784 408.975 247.872 409.607 246.26C410.291 244.514 411.734 243.945 413.348 243.3Z"/>
	<path transform="scale(2 2)" d="M413.348 295.972C422.104 294.489 424.68 312.023 416.549 315.865C413.914 316.318 411.127 315.607 409.995 312.968C408.35 309.135 407.351 298.373 413.348 295.972Z"/>
	<path transform="scale(2 2)" d="M414.782 329.515C421.665 329.172 424.749 347.595 415.468 349.62C407.181 349.282 408.133 335.775 410.057 332.249C410.992 330.534 413.03 329.967 414.782 329.515Z"/>
	<path transform="scale(2 2)" d="M413.848 150.306C423.352 149.548 423.499 166.165 416.549 168.783C406.32 169.597 406.235 152.94 413.848 150.306Z"/>
	<path transform="scale(2 2)" d="M414.826 177.321Q414.99 177.269 415.159 177.234Q415.328 177.198 415.499 177.18Q415.67 177.161 415.843 177.159Q416.015 177.157 416.187 177.173Q416.358 177.188 416.528 177.22Q416.697 177.252 416.862 177.301Q417.027 177.349 417.187 177.414Q417.347 177.479 417.5 177.559Q417.652 177.639 417.796 177.734Q417.94 177.828 418.074 177.937Q418.208 178.045 418.331 178.166Q418.453 178.287 418.563 178.42Q418.673 178.553 418.77 178.695Q418.866 178.838 418.948 178.99Q419.03 179.141 419.097 179.3Q419.163 179.459 419.214 179.624Q419.265 179.789 419.299 179.958Q419.333 180.127 419.35 180.298Q419.368 180.47 419.368 180.642Q419.368 180.814 419.352 180.986Q419.335 181.157 419.302 181.326Q419.268 181.496 419.218 181.66Q419.168 181.825 419.102 181.985Q419.036 182.144 418.955 182.296Q418.874 182.448 418.778 182.591Q418.682 182.734 418.573 182.867Q418.463 183 418.341 183.122Q418.219 183.244 418.085 183.353Q417.952 183.462 417.808 183.557Q417.665 183.652 417.512 183.733Q417.36 183.814 417.201 183.879Q417.041 183.945 416.876 183.994Q416.713 184.043 416.545 184.076Q416.378 184.108 416.208 184.124Q416.038 184.141 415.867 184.14Q415.697 184.14 415.527 184.122Q415.357 184.105 415.19 184.072Q415.022 184.038 414.859 183.988Q414.696 183.939 414.538 183.873Q414.381 183.808 414.23 183.727Q414.08 183.647 413.938 183.552Q413.796 183.457 413.664 183.349Q413.532 183.241 413.411 183.121Q413.291 183 413.182 182.868Q413.074 182.737 412.979 182.595Q412.883 182.453 412.803 182.303Q412.722 182.153 412.656 181.996Q412.59 181.838 412.54 181.675Q412.49 181.512 412.456 181.345Q412.422 181.177 412.404 181.008Q412.387 180.838 412.386 180.667Q412.385 180.497 412.401 180.327Q412.417 180.157 412.449 179.989Q412.481 179.822 412.53 179.658Q412.578 179.494 412.643 179.336Q412.707 179.178 412.786 179.027Q412.866 178.876 412.959 178.733Q413.053 178.591 413.16 178.458Q413.267 178.325 413.387 178.203Q413.506 178.082 413.637 177.972Q413.768 177.863 413.909 177.767Q414.05 177.67 414.2 177.588Q414.349 177.506 414.506 177.439Q414.663 177.372 414.826 177.321Z"/>
	<path transform="scale(2 2)" d="M103.307 99.2763C111.181 98.9822 113.143 110.552 116.197 117.023L124.604 134.812C127.526 140.906 135.299 151.309 124.517 153.868C119.245 152.606 118.134 147.511 115.875 143.247L105.875 143.247L92.6406 143.247C89.5572 149.17 83.1737 161.82 78.5381 148.106C79.6244 144.242 81.6629 140.721 83.3893 137.122L92.4141 118.522C94.9542 113.267 98.1016 101.88 103.307 99.2763ZM98.2211 132.017L104.612 132.017C106.736 132.051 108.873 132.117 110.996 132.017C109.696 128.985 106.648 120.876 104.612 118.7C102.315 123.049 100.307 127.564 98.2211 132.017Z"/>
	<path transform="scale(2 2)" d="M289.032 118.7C295.685 118.369 301.662 123.035 296.803 128.136C293.633 131.463 285.445 130.087 281.339 130.084L183.562 130.092C177.599 130.042 168.194 127.156 174.795 120.19C177.45 117.388 187.294 118.681 190.886 118.698L289.032 118.7Z"/>
	<path transform="scale(2 2)" d="M315.476 118.7L337.903 118.7C339.742 119.765 340.656 120.72 341.714 122.552C341.907 125.727 341.294 128.943 337.903 130.092C332.846 130.045 318.07 130.92 314.285 129.3C308.696 126.909 310.528 120.511 315.476 118.7Z"/>
	<path transform="scale(2 2)" d="M145.57 118.7C149.111 118.584 154.282 117.747 157.387 119.742C162.246 122.865 159.053 129.17 154.31 130.092C151.182 130.056 145.548 130.6 142.91 128.739C138.701 125.77 140.658 119.303 145.57 118.7Z"/>
	<path transform="scale(2 2)" d="M41.389 399.491C47.2469 399.977 54.1557 398.195 53.7621 406.255C53.299 409.137 52.3741 410.513 49.3125 410.742C43.4064 410.747 37.8153 412.319 35.638 405.487C36.4321 401.99 37.8099 400.504 41.389 399.491Z"/>
</svg>
