<?xml version="1.0" encoding="utf-8" ?>
<svg xmlns="http://www.w3.org/2000/svg" xmlns:xlink="http://www.w3.org/1999/xlink" width="1024" height="1024">
	<path fill="#BCDEF6" transform="scale(2 2)" d="M431.057 106.961C428.523 95.7379 448.112 97.9728 454.26 99.0188C464.119 100.696 464.765 108.057 464.757 115.784L464.764 144.506C464.761 150.433 466.578 158.487 458.561 159.55L458.252 159.588C458.26 160.898 457.887 174.841 458.104 175.088L458.135 174.905L458.252 175.138C468.733 176.155 464.752 196.664 464.754 205.302L464.76 278.588C464.759 285.25 467.243 293.659 458.973 295.961C459.21 298.321 458.383 310.24 458.973 311.12C454.979 311.619 453.013 313.968 452.6 317.876C447.083 319.299 441.707 321.078 435.996 321.622L435.998 290.148C436.001 285.015 436.263 279.792 435.996 274.673C439.513 273.361 443.006 271.222 446.464 269.663C442.252 252.208 427.64 248.808 412.23 254.208C406.318 250.111 403.297 246.97 396.421 243.838C375.348 234.24 358.207 238.241 338.159 245.776C327.619 240.334 319.012 238.48 307.289 237.746C303.147 237.634 299.245 237.96 295.141 238.44C283.388 241.072 273.797 244.643 265.056 253.296C253.895 249.163 246.221 250.431 237.272 257.539C228.81 251.424 224.211 251.849 214.111 251.856L199.234 251.875C183.407 251.884 167.552 251.648 151.729 251.873C151.817 250.86 151.652 250.129 151.347 249.164L150.026 251.2C137.082 257.942 135.031 231.576 147.494 233.913C147.34 228.816 147.613 223.734 147.494 218.64C137.604 220.563 139.656 208.465 139.654 202.604L139.653 131.909C139.652 121.296 135.722 102.396 149.094 99.3312C152.759 98.4911 173.691 98.3707 178.715 98.8798C182.817 99.2956 184.602 101.166 185.403 105.263C187.495 105.25 199.619 106.271 199.802 106.247C199.176 97.3664 207.606 98.8485 213.559 98.8518L257.037 98.8616C284.103 98.8596 281.766 96.3593 302.734 113.416C311.929 99.5159 325.056 98.8385 339.901 98.8558L356.514 98.884C363.618 98.8891 382.986 95.1812 382.002 105.263C383.218 106.802 398.089 106.795 399.316 106.247C398.405 96.0397 415.228 95.7402 414.474 106.247C419.944 106.228 425.682 105.831 431.057 106.961Z"/>
	<path transform="scale(2 2)" d="M199.802 106.247C199.176 97.3664 207.606 98.8485 213.559 98.8518L257.037 98.8616C284.103 98.8596 281.766 96.3593 302.734 113.416C311.929 99.5159 325.056 98.8385 339.901 98.8558L356.514 98.884C363.618 98.8891 382.986 95.1812 382.002 105.263C381.556 113.475 371.143 110.789 365.529 110.776C354.243 110.752 341.327 110.241 330.24 111.006C312.739 112.213 311.311 127.566 301.814 126.901C296.51 126.53 293.307 120.912 289.783 117.571C280.771 109.024 269.518 110.764 258.008 110.77L222.247 110.781C214.559 110.781 203.39 113.574 199.802 106.247Z"/>
	<path transform="scale(2 2)" d="M147.494 218.64C137.604 220.563 139.656 208.465 139.654 202.604L139.653 131.909C139.652 121.296 135.722 102.396 149.094 99.3312C152.759 98.4911 173.691 98.3707 178.715 98.8798C182.817 99.2956 184.602 101.166 185.403 105.263C181.991 115.006 161.673 110.772 151.729 110.775L151.742 202.686C151.751 207.623 153.579 216.519 147.494 218.64Z"/>
	<path transform="scale(2 2)" d="M458.252 175.138C468.733 176.155 464.752 196.664 464.754 205.302L464.76 278.588C464.759 285.25 467.243 293.659 458.973 295.961C449.277 294.145 452.597 280.05 452.596 271.903L452.599 199.228C452.599 192.319 449.383 175.961 458.252 175.138Z"/>
	<path transform="scale(2 2)" d="M295.141 238.44L295.129 161.785C295.129 156.907 293.957 145.186 302.489 147.383C304.773 147.971 306.107 149.505 307.289 151.426C307.475 161.173 307.289 170.959 307.29 180.711L307.289 237.746C303.147 237.634 299.245 237.96 295.141 238.44Z"/>
	<path transform="scale(2 2)" d="M431.057 106.961C428.523 95.7379 448.112 97.9728 454.26 99.0188C464.119 100.696 464.765 108.057 464.757 115.784L464.764 144.506C464.761 150.433 466.578 158.487 458.561 159.55L458.252 159.588C449.92 157.68 452.593 146.832 452.592 139.822L452.6 110.775C445.696 110.446 434.327 113.645 431.057 106.961Z"/>
	<path transform="scale(2 2)" d="M150.026 251.2C137.082 257.942 135.031 231.576 147.494 233.913C153.268 236.687 152.716 243.687 151.347 249.164L150.026 251.2Z"/>
	<path transform="scale(2 2)" d="M399.316 106.247C398.405 96.0397 415.228 95.7402 414.474 106.247C411.629 112.548 401.8 113.35 399.316 106.247Z"/>
	<path transform="scale(2 2)" d="M195.479 163.35C202.826 155.574 211.412 156.769 221.107 156.773C233.905 156.779 241.594 154.816 252.295 163.35C258.303 157.089 276.022 151.931 275.933 163.481C275.845 174.898 258.256 160.586 258.514 181.659C262.49 181.706 270.647 180.412 273.601 183.215C275.805 185.307 275.796 189.558 273.645 191.68C270.374 194.909 262.842 193.577 258.514 193.648L258.514 209.869C262.617 209.905 269.813 209.092 273.462 210.303C278.414 211.946 279.134 219.816 274.106 221.498C270.696 222.639 236.838 223.031 232.1 220.554C225.324 209.062 240.066 209.848 246.461 209.869L246.461 193.648L201.171 193.648L201.171 209.869C207.157 209.738 212.448 214.751 207.321 220.244C204.838 222.904 178.683 222.505 173.793 221.372C169.662 220.416 168.253 214.578 171.199 211.624C173.976 208.84 185.02 209.85 189.023 209.869L189.023 193.648C185.08 193.423 175.709 194.732 172.877 192.178C170.4 189.943 169.941 185.985 172.433 183.564C175.54 180.545 184.795 181.641 189.023 181.659C189.781 165.194 180.599 171.362 173.331 167.572C168.268 164.932 171.107 158.077 176.61 156.803C184.054 156.621 189.956 157.889 195.479 163.35Z"/>
	<path fill="#BCDEF6" transform="scale(2 2)" d="M210.015 168.93C212.912 168.695 216.011 168.915 218.932 168.926L235.117 168.831C243.402 168.73 246.516 173.95 246.461 181.659C243.885 181.747 241.296 181.677 238.72 181.659L201.171 181.659C201.226 175.129 202.751 169.874 210.015 168.93Z"/>
	<path transform="scale(2 2)" d="M334.533 156.803C341.974 156.516 347.135 158.059 352.636 163.35C362.621 153.522 381.276 156.432 394.669 156.835C401.074 157.027 405.294 158.671 409.691 163.35C422.983 149.998 439.631 159.344 432.074 167.096C425.49 173.849 415.802 161.547 415.995 181.659C419.726 181.662 428.638 180.791 431.405 183.085C434.004 185.24 434.23 189.212 431.91 191.668C428.872 194.881 420.238 193.553 415.995 193.648L415.995 209.869C420.137 210.015 427.035 208.983 430.679 210.763C435.105 212.924 434.904 220.301 430.025 221.6C426.428 222.557 397.092 222.897 392.98 220.554C390.094 218.104 389.483 214.559 392.304 211.771C395.02 209.086 400.494 209.873 403.981 209.869C404.015 204.465 403.76 199.048 403.981 193.648C399.173 193.27 394.083 193.636 389.24 193.637L358.174 193.648L358.174 209.869C363.499 209.682 368.199 214.526 364.649 219.396C361.504 223.709 352.899 221.916 348.378 221.906C343.347 221.895 332.5 223.726 328.4 220.235C326.082 218.262 325.951 214.213 328.069 212.044C331.219 208.819 341.671 209.852 346.087 209.869L346.087 193.648C342.197 193.672 335.526 194.549 332.377 191.825C329.894 189.675 330.062 185.496 332.372 183.293C335.111 180.681 342.358 181.64 346.087 181.659C347.601 166.514 340.838 171.157 333.506 168.433C327.444 166.181 329.642 158.832 334.533 156.803Z"/>
	<path fill="#BCDEF6" transform="scale(2 2)" d="M366.3 168.93C372.449 168.84 378.613 168.918 384.764 168.916C396.82 168.914 403.536 167.363 403.981 181.659L395.802 181.659L358.174 181.659C357.956 175.117 359.348 170.616 366.3 168.93Z"/>
	<path transform="scale(2 2)" d="M238.72 131.633L259.393 131.618C262.943 131.603 266.815 131.242 270.319 131.671C275.592 132.317 281.785 143.716 264.613 143.708L207.875 143.702L186.847 143.73C183.15 143.732 178.873 144.155 175.236 143.417C169.989 142.354 165.168 131.615 182.554 131.627L238.72 131.633Z"/>
	<path transform="scale(2 2)" d="M335.418 131.633L415.855 131.635C419.202 131.635 422.648 131.446 425.984 131.665C434.325 132.212 434.488 142.178 427.012 143.702L348.267 143.711C344.367 143.712 335.796 144.676 332.437 142.427C327.568 139.169 330.069 132.319 335.418 131.633Z"/>
	<path transform="scale(2 2)" d="M300.818 141.159Q300.88 141.119 300.946 141.085Q301.012 141.052 301.081 141.024Q301.149 140.997 301.22 140.976Q301.291 140.955 301.364 140.941Q301.437 140.927 301.51 140.92Q301.584 140.913 301.658 140.914Q301.732 140.914 301.805 140.921Q301.879 140.928 301.952 140.942Q302.024 140.956 302.095 140.976Q302.166 140.997 302.235 141.025Q302.304 141.052 302.37 141.086Q302.435 141.12 302.498 141.159Q302.56 141.199 302.618 141.245Q302.676 141.29 302.73 141.341Q302.784 141.392 302.832 141.448Q302.881 141.504 302.924 141.564Q302.967 141.624 303.004 141.688Q303.041 141.752 303.072 141.819Q303.103 141.887 303.128 141.956Q303.152 142.026 303.17 142.098Q303.188 142.17 303.198 142.243Q303.209 142.316 303.213 142.39Q303.217 142.464 303.214 142.538Q303.211 142.612 303.2 142.685Q303.19 142.759 303.173 142.831Q303.156 142.903 303.132 142.973Q303.108 143.043 303.078 143.11Q303.048 143.178 303.011 143.242Q302.975 143.306 302.932 143.367Q302.889 143.427 302.841 143.484Q302.793 143.54 302.74 143.591Q302.687 143.643 302.629 143.689Q302.547 143.755 302.456 143.809Q302.365 143.863 302.268 143.905Q302.171 143.946 302.069 143.974Q301.968 144.002 301.863 144.016Q301.758 144.03 301.653 144.03Q301.547 144.03 301.443 144.015Q301.338 144.001 301.237 143.972Q301.135 143.944 301.038 143.902Q300.941 143.86 300.851 143.805Q300.761 143.751 300.678 143.685Q300.596 143.618 300.524 143.542Q300.452 143.465 300.39 143.379Q300.329 143.293 300.279 143.2Q300.23 143.107 300.194 143.007Q300.158 142.908 300.135 142.805Q300.112 142.702 300.104 142.597Q300.096 142.492 300.101 142.386Q300.107 142.281 300.127 142.177Q300.147 142.074 300.181 141.974Q300.215 141.874 300.262 141.779Q300.309 141.684 300.368 141.597Q300.427 141.51 300.498 141.431Q300.568 141.353 300.649 141.284Q300.729 141.216 300.818 141.159Z"/>
	<path transform="scale(2 2)" d="M242.594 324.767L242.586 293.209C242.585 285.376 239.788 267.947 250.342 265.652C258.385 263.903 262.109 273.871 270.388 271.829C278.824 269.748 275.822 257.644 296.719 253.793C311.45 251.078 326.006 255.278 338.159 263.668C356.381 252.822 382.341 248.654 399.967 262.927C402.371 264.873 406.145 270.457 408.404 271.369C415.297 274.152 428.758 256.092 435.996 274.673C436.263 279.792 436.001 285.015 435.998 290.148L435.996 321.622C441.707 321.078 447.083 319.299 452.6 317.876C453.013 313.968 454.979 311.619 458.973 311.12C467.862 312.221 464.747 325.298 464.742 332.161C464.723 359.634 467.619 362.081 435.996 362.002C436.105 374.749 435.788 387.511 435.996 400.255C443.307 400.619 447.493 407.074 442.1 411.148C438.441 413.912 431.46 412.456 427.183 412.464L255.502 412.491C251.191 412.481 242.753 413.064 238.974 412.402C230.581 410.931 231.449 400.507 242.594 400.255L242.594 362.002L225.682 362.023C222.89 362.026 219.961 362.223 217.188 362.002C217.17 358.261 217.438 354.44 217.188 350.711L217.188 350.058C217.094 349.141 217.166 348.2 217.188 347.279C219.762 347.437 222.249 347.289 224.814 347.279C231.192 346.817 232.85 335.511 221.585 335.725C222.028 333.776 222.309 331.822 222.579 329.842L222.579 327.545C222.746 322.506 237.741 324.669 242.594 324.767Z"/>
	<path fill="#169FEB" transform="scale(2 2)" d="M435.996 321.622C441.707 321.078 447.083 319.299 452.6 317.876L452.62 339.451C452.641 342.989 453.048 346.536 452.6 350.058L435.996 350.058C435.991 340.623 435.61 331.037 435.996 321.622Z"/>
	<path fill="#BCDEF6" transform="scale(2 2)" d="M222.579 327.545C222.746 322.506 237.741 324.669 242.594 324.767L242.615 341.488C242.618 344.322 242.763 347.235 242.594 350.058C237.613 350.66 222.371 350.422 217.188 350.058C217.094 349.141 217.166 348.2 217.188 347.279C219.762 347.437 222.249 347.289 224.814 347.279C231.192 346.817 232.85 335.511 221.585 335.725C222.028 333.776 222.309 331.822 222.579 329.842L222.579 327.545Z"/>
	<path fill="#006FD0" transform="scale(2 2)" d="M217.188 347.279C219.762 347.437 222.249 347.289 224.814 347.279C222.698 347.61 220.498 346.85 220.969 349.629C222.284 350.589 239.543 349.955 242.594 350.058C237.613 350.66 222.371 350.422 217.188 350.058C217.094 349.141 217.166 348.2 217.188 347.279Z"/>
	<path fill="#FEC302" transform="scale(2 2)" d="M344.408 273.823C357.285 264.787 367.749 265.335 382.002 266.492L381.989 282.655C381.983 286.024 380.973 292.533 383.337 295.337C386.71 299.338 392.604 297.443 393.659 292.641C394.49 288.859 393.926 279.886 393.902 275.617C402.787 284.974 412.754 286.562 424.03 279.852C423.8 290.938 424.023 302.069 424.025 313.16L424.03 379.306L424.03 400.255C418.983 400.333 414.314 399.259 409.379 398.425C397.109 396.353 373.857 396.447 361.316 398.038C355.633 398.759 350.097 400.312 344.408 400.942L344.408 390.373L344.408 273.823Z"/>
	<path transform="scale(2 2)" d="M387.116 308.538C389.621 308.458 392.104 309.518 393.231 311.897C394.307 314.17 394.364 340.196 393.373 342.678C392.637 344.523 390.832 345.377 389.097 346.045C386.634 346.477 383.253 345.442 382.543 342.735C381.648 339.322 381.717 318.362 382.079 314.252C382.378 310.855 383.705 309.372 387.116 308.538Z"/>
	<path transform="scale(2 2)" d="M387.116 357.864C394.762 356.512 398.577 371.459 389.097 376.528C379.406 376.544 378.952 359.676 387.116 357.864Z"/>
	<path fill="#FEC302" transform="scale(2 2)" d="M290.049 269.663C302.802 261.461 320.861 265.368 332.485 273.823L332.485 357.864L332.485 400.942C313.023 396.789 292.072 396.022 272.224 397.853C266.346 398.395 260.543 399.871 254.674 400.255L254.674 389.471L254.674 279.852C265.667 286.447 276.795 285.199 285.679 275.617C285.313 279.443 285.034 296.744 286.926 299.281C290.384 303.919 297.3 301.381 297.709 294.958C298.291 285.822 301.585 270.069 290.049 269.663Z"/>
	<path transform="scale(2 2)" d="M290.049 342.036C292.782 341.816 295.936 342.846 297.069 345.585C298.345 348.668 300.923 373.753 293.314 376.528C290.73 376.911 287.555 376.271 286.329 373.665C285.309 371.496 285.295 347.406 286.18 345.271C286.89 343.559 288.439 342.736 290.049 342.036Z"/>
	<path transform="scale(2 2)" d="M290.824 314.29C299.23 314.105 300.492 324.592 293.314 327.545C284.316 328.846 283.068 316.987 290.824 314.29Z"/>
	<path transform="scale(2 2)" d="M81.0983 302.641C72.0913 288.331 78.5072 268.782 95.9538 266.664C101.266 266.019 108.363 266.493 113.839 266.493L215.021 266.486C218.781 266.463 224.514 265.397 227.635 267.996C233.483 272.866 228.001 278.487 220.521 278.487L220.521 294.689C220.492 296.946 220.584 299.223 220.521 301.475C233.895 301.642 231.595 313.35 222.579 313.519L222.579 327.545L222.579 329.842C222.309 331.822 222.028 333.776 221.585 335.725C232.85 335.511 231.192 346.817 224.814 347.279C222.249 347.289 219.762 347.437 217.188 347.279C217.166 348.2 217.094 349.141 217.188 350.058L217.188 350.711C217.438 354.44 217.17 358.261 217.188 362.002L217.188 367.418C224.423 367.248 229.294 372.862 224.24 377.716C221.683 380.171 217.577 379.439 214.332 379.306L214.332 395.719L214.326 396.078C214.296 397.315 213.668 399.894 214.075 400.871L214.332 400.942C226.037 400.066 224.145 411.551 218.29 412.358C216.015 412.672 213.558 412.511 211.259 412.51L181.955 412.517C175.906 412.516 167.571 414.543 165.94 406.751C162.565 407.226 155.167 406.767 151.347 406.751C150.25 410.815 148.451 412.476 144.361 412.564C132.259 412.825 120.06 412.489 107.948 412.493L94.3406 412.527C91.2796 412.548 88.147 412.711 85.0991 412.434C68.697 410.941 61.3737 393.583 68.5751 379.306C42.1509 378.695 38.0377 338.143 68.5751 334.914C62.1478 320.901 68.076 309.452 81.0983 302.641Z"/>
	<path fill="#169FEB" transform="scale(2 2)" d="M60.2988 352.277C65.3378 343.782 77.7109 346.953 86.4249 347.227C93.5537 347.452 100.729 347.283 107.864 347.283L180.894 347.279C192.985 347.278 205.1 347.453 217.188 347.279C217.166 348.2 217.094 349.141 217.188 350.058L217.188 350.711C217.438 354.44 217.17 358.261 217.188 362.002L217.188 367.418C224.423 367.248 229.294 372.862 224.24 377.716C221.683 380.171 217.577 379.439 214.332 379.306C208.902 379.304 183.981 380.02 180.761 378.66C178.895 377.872 178.163 376.023 177.44 374.283C172.106 374.279 166.691 374.558 161.368 374.283C160.231 364.149 147.742 367.407 139.881 367.407L88.5004 367.423C82.3108 367.432 76.1057 368.157 69.9158 367.834C61.717 367.406 55.9365 359.708 60.2988 352.277Z"/>
	<path fill="#006FD0" transform="scale(2 2)" d="M217.188 350.711C217.438 354.44 217.17 358.261 217.188 362.002L217.188 367.418C224.423 367.248 229.294 372.862 224.24 377.716C221.683 380.171 217.577 379.439 214.332 379.306C208.902 379.304 183.981 380.02 180.761 378.66C178.895 377.872 178.163 376.023 177.44 374.283C172.106 374.279 166.691 374.558 161.368 374.283C160.231 364.149 147.742 367.407 139.881 367.407L88.5004 367.423C82.3108 367.432 76.1057 368.157 69.9158 367.834C61.717 367.406 55.9365 359.708 60.2988 352.277C65.0385 358.513 62.3915 360.519 72.2418 360.979C83.5084 361.504 94.9823 361.064 106.266 361.065L202.085 361.07C207.142 361.106 212.153 361.829 217.188 361.064C217.114 357.697 216.788 354.044 217.188 350.711Z"/>
	<path transform="scale(2 2)" d="M217.188 367.418C224.423 367.248 229.294 372.862 224.24 377.716C221.683 380.171 217.577 379.439 214.332 379.306C208.902 379.304 183.981 380.02 180.761 378.66C178.895 377.872 178.163 376.023 177.44 374.283C177.395 365.788 186.117 367.401 191.902 367.401C200.288 367.403 208.823 367.799 217.188 367.418Z"/>
	<path fill="#FEC302" transform="scale(2 2)" d="M161.368 374.283C166.691 374.558 172.106 374.279 177.44 374.283C178.163 376.023 178.895 377.872 180.761 378.66C183.981 380.02 208.902 379.304 214.332 379.306L214.332 395.719L214.326 396.078C214.296 397.315 213.668 399.894 214.075 400.871L214.332 400.942C226.037 400.066 224.145 411.551 218.29 412.358C216.015 412.672 213.558 412.511 211.259 412.51L181.955 412.517C175.906 412.516 167.571 414.543 165.94 406.751C162.565 407.226 155.167 406.767 151.347 406.751C150.953 405.543 150.481 404.363 150.026 403.178C146.492 399.37 139.037 400.917 134.383 400.922L103.142 400.956C96.1347 400.962 74.2887 403.524 78.2046 389.471C78.3052 375.897 95.8558 379.291 104.648 379.294L144.85 379.286C152.12 379.296 157.967 381.893 161.368 374.283Z"/>
	<path transform="scale(2 2)" d="M214.332 400.942C226.037 400.066 224.145 411.551 218.29 412.358C216.015 412.672 213.558 412.511 211.259 412.51L181.955 412.517C175.906 412.516 167.571 414.543 165.94 406.751C166.281 404.474 167.342 402.711 168.737 400.942C172.433 400.583 176.463 400.927 180.199 400.929L204.096 400.947C207.385 400.955 211.102 401.37 214.332 400.942Z"/>
	<path fill="#FEC302" transform="scale(2 2)" d="M78.2046 325.459C76.4288 311.2 92.8799 313.498 101.516 313.505L222.579 313.519L222.579 327.545L222.579 329.842C222.309 331.822 222.028 333.776 221.585 335.725L103.999 335.737C94.6811 335.742 79.4968 338.557 78.2046 325.459Z"/>
	<path fill="#FEC302" transform="scale(2 2)" d="M129.529 278.487L220.521 278.487L220.521 294.689C220.492 296.946 220.584 299.223 220.521 301.475L128.541 301.475C129.943 299.293 131.026 297.148 131.859 294.689C132.981 288.778 132.208 283.814 129.529 278.487Z"/>
	<path fill="#BCDEF6" transform="scale(2 2)" d="M89.3289 291.953C82.9373 271.714 131.144 273.663 118.108 295.961C110.969 304.036 91.8812 304.015 89.3289 291.953Z"/>
	<path fill="#169FEB" transform="scale(2 2)" d="M89.3289 291.953C99.1279 298.949 105.782 295.841 118.108 295.961C110.969 304.036 91.8812 304.015 89.3289 291.953Z"/>
</svg>
