<?xml version="1.0" encoding="utf-8" ?>
<svg xmlns="http://www.w3.org/2000/svg" xmlns:xlink="http://www.w3.org/1999/xlink" width="1024" height="1024">
	<path fill="#BCDEF6" transform="scale(2 2)" d="M114.573 110.433C106.832 107.416 108.983 92.0605 109.828 85.2045C111.89 68.484 131.539 72.2328 143.402 72.2357L217.415 72.239C233.726 72.2006 245.04 70.0433 256.308 85.0533C266.587 70.8131 277.825 72.2134 293.241 72.2204L368.644 72.2254C379.569 72.2256 399.89 68.5186 402.04 83.951C402.747 89.03 402.26 94.7512 402.257 99.8897L402.147 202.894C402.089 208.581 403.735 220.356 394.174 217.58C392.909 218.906 392.24 227.994 392.973 229.927L393.464 230.155C405.939 226.746 402.096 249.231 402.249 255.921C400.356 257.95 398.584 258.977 395.935 259.656C389.923 257.762 390.749 252.739 390.76 247.357C384.107 250.159 378.809 250.1 371.722 250.076L294.92 250.065C276.996 250.032 274.375 247.036 261.771 262.256C261.537 266.41 262.977 274.226 260.151 277.64C258.313 279.86 254.195 280.076 252.151 278.029C249.377 275.252 250.404 266.061 250.437 262.256C237.301 247.176 237.723 250.084 218.188 250.055L142.547 250.083C133.179 250.11 129.081 250.236 120.754 245.503C120.731 249.161 121.442 255.74 120.379 259.003C118.877 263.618 111.791 264.363 109.984 259.557C109.005 256.953 109.566 238.81 109.566 234.915L109.572 152.988C109.572 145.417 106.382 126.317 114.573 124.023C114.482 120.841 113.555 113.373 114.788 110.715L114.573 110.433ZM250.437 245.503C250.368 243.897 250.424 242.274 250.437 240.667L249.97 241.471C248.798 241.75 247.707 241.672 247.138 242.881C248.27 243.706 249.346 244.623 250.437 245.503Z"/>
	<path fill="#BCDEF6" transform="scale(2 2)" d="M142.126 83.2336L222.944 83.2295C247.902 83.2375 250.457 88.4458 250.449 114.398L250.437 240.667L249.97 241.471C248.798 241.75 247.707 241.672 247.138 242.881C235.602 236.882 228.269 238.816 215.509 238.819L174.132 238.809L146.672 238.815C118.247 238.844 120.741 234.268 120.745 210.386L120.755 154.617C120.755 149.795 120.686 144.971 120.749 140.15C120.826 134.276 122.984 124.645 114.573 124.023C114.482 120.841 113.555 113.373 114.788 110.715L114.573 110.433C127.347 109.333 116.733 90.068 122.119 84.3725C123.911 82.4771 128.79 83.1894 131.101 83.2012L142.126 83.2336Z"/>
	<path fill="#83C1DE" transform="scale(2 2)" d="M114.573 110.433C127.347 109.333 116.733 90.068 122.119 84.3725C123.911 82.4771 128.79 83.1894 131.101 83.2012L142.126 83.2336C139.523 91.4291 138.789 97.778 139.761 106.7C144.019 105.695 175.201 106.757 176.352 107.483C179.077 109.2 179.44 112.372 178.524 115.203C180.15 124.323 168.628 121.755 162.98 121.751L139.761 121.743C139.75 124.313 139.577 127.028 139.761 129.584C141.59 129.278 143.503 129.531 145.355 129.553L177.435 129.579C185.818 129.581 197.416 126.263 196.09 138.108C196.234 140.775 194.851 142.094 193.184 143.985C187.282 144.151 181.347 143.989 175.44 143.986L140.413 143.985C140.162 147.241 139.816 150.757 140.413 153.986C143.933 153.528 174.347 150.836 166.253 162.445C167.609 170.497 146.003 166.946 140.413 167.473C140.399 169.942 139.885 175.657 140.413 177.696C146.133 177.488 151.921 177.692 157.647 177.69C162.966 177.688 179.592 175.622 175.141 186.072C176.152 192.997 163.692 191.166 159.526 191.162L140.413 191.127C140.312 193.007 139.619 199.952 140.212 201.315L140.413 201.429C135.678 204.993 135.715 209.246 140.413 212.927L140.413 213.697C140.315 235.95 142.21 235.508 160.994 237.646C163.24 237.902 172.99 238.538 174.132 238.809L146.672 238.815C118.247 238.844 120.741 234.268 120.745 210.386L120.755 154.617C120.755 149.795 120.686 144.971 120.749 140.15C120.826 134.276 122.984 124.645 114.573 124.023C114.482 120.841 113.555 113.373 114.788 110.715L114.573 110.433Z"/>
	<path transform="scale(2 2)" d="M139.761 129.584C141.59 129.278 143.503 129.531 145.355 129.553L177.435 129.579C185.818 129.581 197.416 126.263 196.09 138.108C192.471 141.88 189.221 141.119 184.384 141.108L150.682 141.1C142.478 141.113 131.026 141.062 139.761 129.584Z"/>
	<path transform="scale(2 2)" d="M139.761 106.7C144.019 105.695 175.201 106.757 176.352 107.483C179.077 109.2 179.44 112.372 178.524 115.203C177.703 116.344 176.637 117.65 175.194 117.961C171.581 118.74 146.645 118.556 142.266 118.082C134.358 117.224 136.524 111.196 139.761 106.7Z"/>
	<path transform="scale(2 2)" d="M140.413 177.696C146.133 177.488 151.921 177.692 157.647 177.69C162.966 177.688 179.592 175.622 175.141 186.072C174.262 187.124 173.459 188.229 172.119 188.71C170.009 189.467 141.037 189.34 139.594 188.537C137.763 187.518 137.169 185.4 136.672 183.522C137.317 180.842 138.374 179.46 140.413 177.696Z"/>
	<path transform="scale(2 2)" d="M140.413 153.986C143.933 153.528 174.347 150.836 166.253 162.445C162.941 166.485 146.168 165.596 141.472 164.825C135.016 163.766 135.821 156.785 140.413 153.986Z"/>
	<path transform="scale(2 2)" d="M140.413 201.429C144.016 201.28 147.64 201.421 151.246 201.427L184.123 201.415C189.875 201.405 201.228 200.812 196.09 210.778C192.025 214.195 182.899 212.544 177.68 212.927L172.864 212.927C162.051 212.743 151.227 213.072 140.413 212.927C135.715 209.246 135.678 204.993 140.413 201.429Z"/>
	<path fill="#83C1DE" transform="scale(2 2)" d="M196.09 210.778C196.772 216.745 179.843 213.964 177.68 212.927C182.899 212.544 192.025 214.195 196.09 210.778Z"/>
	<path transform="scale(2 2)" d="M192.334 117.194C190.147 114.22 189.414 109.595 193.247 107.491C196.694 105.599 224.772 106.303 227.524 107.34C230.714 108.542 231.15 112.471 229.934 115.203C230.648 117.643 229.286 120.751 226.708 121.462C224.513 122.067 195.552 122.075 194.282 121.427C192.842 120.692 192.391 118.692 192.334 117.194Z"/>
	<path fill="#83C1DE" transform="scale(2 2)" d="M229.934 115.203C230.648 117.643 229.286 120.751 226.708 121.462C224.513 122.067 195.552 122.075 194.282 121.427C192.842 120.692 192.391 118.692 192.334 117.194C197.35 119.524 207.218 118.225 212.786 118.222C218.864 118.219 226.08 120.156 229.934 115.203Z"/>
	<path transform="scale(2 2)" d="M181.679 165.041C179.352 162.788 177.994 159.194 179.939 156.219C182.086 152.934 186.947 153.929 190.246 153.955L216.645 154.006C222.055 153.973 236.873 154.09 229.177 163.738C225.207 165.966 218.769 165.049 214.406 165.05L187.99 165.067C185.931 165.091 183.717 165.314 181.679 165.041Z"/>
	<path transform="scale(2 2)" d="M188.76 188.109L188.395 187.21C186.23 181.903 187.846 178.136 193.925 177.726C201.838 177.193 216.558 177.13 224.585 177.663C230.162 178.033 232.306 181.958 229.934 186.932C225.86 190.595 219.238 189.071 214.182 189.073C209.648 189.075 192.185 190.111 188.76 188.109Z"/>
	<path transform="scale(2 2)" d="M210.749 211.829C199.665 198.684 236.813 195.877 229.934 210.778C229.807 217.44 211.276 214.751 210.749 211.829Z"/>
	<path fill="#83C1DE" transform="scale(2 2)" d="M229.934 210.778C229.807 217.44 211.276 214.751 210.749 211.829C215.766 213.865 225.767 214.032 229.934 210.778Z"/>
	<path transform="scale(2 2)" d="M209.566 139.518C207.349 137.286 206.452 133.901 208.891 131.366C211.757 128.388 237.346 126.651 229.934 139.518C226.025 142.166 212.535 142.434 209.566 139.518Z"/>
	<path transform="scale(2 2)" d="M114.573 110.433C106.832 107.416 108.983 92.0605 109.828 85.2045C111.89 68.484 131.539 72.2328 143.402 72.2357L217.415 72.239C233.726 72.2006 245.04 70.0433 256.308 85.0533C266.587 70.8131 277.825 72.2134 293.241 72.2204L368.644 72.2254C379.569 72.2256 399.89 68.5186 402.04 83.951C402.747 89.03 402.26 94.7512 402.257 99.8897L402.147 202.894C402.089 208.581 403.735 220.356 394.174 217.58C388.488 214.087 391.139 197.082 391.136 190.404L391.119 101.464C391.112 78.0149 393.261 83.2167 368.441 83.2232L295.4 83.2295C282.385 83.2329 264.513 81.2013 261.96 99.6506C261.349 104.062 261.76 108.973 261.76 113.436L261.777 210.218C261.778 221.96 262.034 233.767 261.771 245.503C269.125 239.687 274.38 238.615 283.622 238.809C304.815 235.71 325.145 235.549 346.444 235.558L364.482 235.571C377.193 235.579 378.145 236.641 388.922 230.155C390.431 230.28 391.952 230.197 393.464 230.155L393.464 230.155C405.939 226.746 402.096 249.231 402.249 255.921C400.356 257.95 398.584 258.977 395.935 259.656C389.923 257.762 390.749 252.739 390.76 247.357C384.107 250.159 378.809 250.1 371.722 250.076L294.92 250.065C276.996 250.032 274.375 247.036 261.771 262.256C261.537 266.41 262.977 274.226 260.151 277.64C258.313 279.86 254.195 280.076 252.151 278.029C249.377 275.252 250.404 266.061 250.437 262.256C237.301 247.176 237.723 250.084 218.188 250.055L142.547 250.083C133.179 250.11 129.081 250.236 120.754 245.503C120.731 249.161 121.442 255.74 120.379 259.003C118.877 263.618 111.791 264.363 109.984 259.557C109.005 256.953 109.566 238.81 109.566 234.915L109.572 152.988C109.572 145.417 106.382 126.317 114.573 124.023C122.984 124.645 120.826 134.276 120.749 140.15C120.686 144.971 120.755 149.795 120.755 154.617L120.745 210.386C120.741 234.268 118.247 238.844 146.672 238.815L174.132 238.809L215.509 238.819C228.269 238.816 235.602 236.882 247.138 242.881C248.27 243.706 249.346 244.623 250.437 245.503C250.368 243.897 250.424 242.274 250.437 240.667L250.449 114.398C250.457 88.4458 247.902 83.2375 222.944 83.2295L142.126 83.2336L131.101 83.2012C128.79 83.1894 123.911 82.4771 122.119 84.3725C116.733 90.068 127.347 109.333 114.573 110.433Z"/>
	<path fill="#83C1DE" transform="scale(2 2)" d="M388.922 230.155C390.431 230.28 391.952 230.197 393.464 230.155C382.309 240.158 383.179 238.898 368.528 238.82L350.916 238.804C328.498 238.804 306.035 239.115 283.622 238.809C304.815 235.71 325.145 235.549 346.444 235.558L364.482 235.571C377.193 235.579 378.145 236.641 388.922 230.155Z"/>
	<path transform="scale(2 2)" d="M284.121 140.366C282.203 138.444 281.052 136.348 281.837 133.495C283.323 128.095 292.255 129.553 296.432 129.563L313.407 129.602C320.275 129.608 343.681 125.395 339.051 138.108C339.396 140.681 338.374 142.222 336.696 143.985L304 143.994C298.257 143.998 292.463 144.161 286.724 143.985C285.403 142.892 284.656 142.002 284.121 140.366Z"/>
	<path fill="#83C1DE" transform="scale(2 2)" d="M284.121 140.366C287.899 141.912 293.225 141.108 297.216 141.11L327.891 141.103C332.359 141.098 336.069 142.055 339.051 138.108C339.396 140.681 338.374 142.222 336.696 143.985L304 143.994C298.257 143.998 292.463 144.161 286.724 143.985C285.403 142.892 284.656 142.002 284.121 140.366Z"/>
	<path transform="scale(2 2)" d="M284.121 212.927C277.641 201.412 284.144 201.353 295.057 201.433L307.632 201.444C317.379 201.437 327.245 201.05 336.974 201.43C342.328 201.639 345.07 205.403 343.003 210.778C338.264 214.31 331.756 212.934 326.164 212.931L289.99 212.937C288.047 212.95 286.051 213.249 284.121 212.927Z"/>
	<path transform="scale(2 2)" d="M333.826 117.194C331.39 113.848 331.573 107.94 336.471 106.94C341.12 105.991 365.864 106.383 371.035 106.807C375.265 107.153 377.258 109.595 376.826 113.816C377.915 116.823 377.484 120.019 374.046 121.115C371.253 122.006 333.697 125.336 333.826 117.194Z"/>
	<path fill="#83C1DE" transform="scale(2 2)" d="M333.826 117.194C337.94 119.418 364.382 118.495 370.366 118.067C373.964 117.81 375.656 117.484 376.826 113.816C377.915 116.823 377.484 120.019 374.046 121.115C371.253 122.006 333.697 125.336 333.826 117.194Z"/>
	<path transform="scale(2 2)" d="M284.121 117.194C280.501 114.604 280.7 109.103 285.067 107.249C287.4 106.258 310.799 106.528 314.502 106.752C319.905 107.079 322.81 109.957 320.489 115.203C321.518 118.219 320.189 119.604 318.256 121.743L298.846 121.762C293.667 121.759 286.038 123.586 284.121 117.194Z"/>
	<path fill="#83C1DE" transform="scale(2 2)" d="M320.489 115.203C321.518 118.219 320.189 119.604 318.256 121.743L298.846 121.762C293.667 121.759 286.038 123.586 284.121 117.194C288.436 119.04 314.36 118.894 318.008 117.818C319.356 117.42 319.859 116.353 320.489 115.203Z"/>
	<path transform="scale(2 2)" d="M326.177 163.738C318.622 149.834 345.093 153.972 351.547 153.973C360.277 153.973 378.784 149.962 376.826 162.445C374.727 164.533 373.311 165.112 370.345 165.112L344.372 165.046C339.724 165.052 330.123 166.442 326.177 163.738Z"/>
	<path transform="scale(2 2)" d="M335.756 188.109L335.598 187.899C332.94 184.272 332.701 178.547 338.34 177.832C342.047 177.362 370.218 177.341 373.097 178.105C376.766 179.078 377.781 182.774 376.826 186.072C372.839 191.001 361.937 189.073 356.148 189.073C351.205 189.074 340.014 190.222 335.756 188.109Z"/>
	<path transform="scale(2 2)" d="M284.121 189.059C274.75 175.542 290.728 177.684 298.927 177.679C306.109 177.675 325.94 174.072 323.157 186.072C317.538 191.116 308.116 189.074 300.681 189.072C295.19 189.07 289.597 189.495 284.121 189.059Z"/>
	<path transform="scale(2 2)" d="M284.121 163.738C280.326 162.25 280.352 157.135 283.634 154.931C286.029 153.324 306.815 153.701 310.371 154.508C314.188 155.375 314.734 159.188 313.865 162.445C314.372 164.921 313.608 165.778 312.015 167.473C307.454 167.619 302.872 167.475 298.307 167.49C293.857 167.504 285.727 169.289 284.121 163.738Z"/>
	<path fill="#83C1DE" transform="scale(2 2)" d="M284.121 163.738C288.814 165.867 309.4 167.02 313.865 162.445C314.372 164.921 313.608 165.778 312.015 167.473C307.454 167.619 302.872 167.475 298.307 167.49C293.857 167.504 285.727 169.289 284.121 163.738Z"/>
	<path transform="scale(2 2)" d="M352.04 139.518C345.357 127.383 363.371 129.239 370.029 129.677C375.639 130.047 377.665 132.473 376.826 138.108C377.638 140.821 375.494 142.466 373.496 143.985C367.261 143.951 361.023 143.92 354.788 143.985C353.34 142.668 352.198 141.57 352.04 139.518Z"/>
	<path fill="#83C1DE" transform="scale(2 2)" d="M376.826 138.108C377.638 140.821 375.494 142.466 373.496 143.985C367.261 143.951 361.023 143.92 354.788 143.985C353.34 142.668 352.198 141.57 352.04 139.518C355.072 142.025 373.066 143.135 376.826 138.108Z"/>
	<path transform="scale(2 2)" d="M357.134 212.927C344.479 199.935 378.054 196.075 376.94 207.987C376.746 210.059 375.14 211.199 374.357 212.927C371.226 213.347 360.226 213.234 357.134 212.927Z"/>
	<path fill="#FEC302" transform="scale(2 2)" d="M241.26 411.729C250.04 413.002 246.72 426.653 243.455 431.485C236.229 442.183 221.705 439.267 210.626 439.262L80.7152 439.265C49.2116 439.296 51.5182 429.118 51.5102 404.063L51.5116 303.371C51.5152 291.199 52.8301 278.262 68.5042 276.242C71.1315 275.903 73.9573 276.098 76.6063 276.109L218.777 276.117C243.404 276.106 247.11 280.284 247.138 305.226L247.138 370.289C247.141 377.418 250.465 394.145 241.548 395.019L241.26 395.045L241.197 405.239C241.171 407.33 240.945 409.675 241.26 411.729Z"/>
	<path transform="scale(2 2)" d="M241.26 411.729C250.04 413.002 246.72 426.653 243.455 431.485C236.229 442.183 221.705 439.267 210.626 439.262L80.7152 439.265C49.2116 439.296 51.5182 429.118 51.5102 404.063L51.5116 303.371C51.5152 291.199 52.8301 278.262 68.5042 276.242C71.1315 275.903 73.9573 276.098 76.6063 276.109L218.777 276.117C243.404 276.106 247.11 280.284 247.138 305.226L247.138 370.289C247.141 377.418 250.465 394.145 241.548 395.019L241.26 395.045C237.168 393.926 236.19 392.546 236.004 388.416C235.625 380.036 235.995 371.454 235.996 363.058L235.986 312.578C235.984 306.112 238.688 290.183 231.197 287.642C228.228 286.635 211.211 287.203 206.969 287.207L104.574 287.217C93.854 287.217 83.0145 286.854 72.3093 287.269C59.9087 287.751 62.5429 300.006 62.563 308.731L62.5682 421.183C63.4897 424.027 64.9746 426.614 67.9745 427.674C71.1683 428.803 93.6949 428.184 98.9605 428.184L202.469 428.179C207.732 428.179 228.29 429.29 232.094 427.305C238.31 424.06 232.854 415.312 239.662 411.882L239.97 411.729L241.26 411.729Z"/>
	<path transform="scale(2 2)" d="M126.23 381.891C113.93 370.95 161.023 357.034 171.465 376.295C171.565 378.147 172.137 380.541 170.574 381.891C174.719 386.667 171.147 390.695 166.253 391.957L166.285 405.175C166.29 408.738 167.067 414.014 164.26 416.814C159.835 421.226 155.468 415.57 155.235 410.018L141.268 410.018C141.326 417.695 130.149 424.632 130.17 404.636L130.201 391.957C127.106 390.738 125.537 389.495 124.696 386.07C125.032 384.54 125.514 383.276 126.23 381.891Z"/>
	<path fill="#FFE161" transform="scale(2 2)" d="M126.23 381.891C113.93 370.95 161.023 357.034 171.465 376.295C171.565 378.147 172.137 380.541 170.574 381.891C169.772 381.13 161.28 377.476 159.284 376.583C150.438 372.626 134.284 376.642 126.23 381.891Z"/>
	<path fill="#BCDEF6" transform="scale(2 2)" d="M141.268 387.544C146.312 386.253 150.211 385.959 155.235 387.544L155.235 410.018L141.268 410.018L141.268 387.544Z"/>
	<path transform="scale(2 2)" d="M78.6136 303.329C89.848 300.783 105.019 294.923 116.256 302.202C118.759 303.824 122.666 308.224 120.754 311.462C131.27 316.082 128.09 323.879 119.852 322.477C119.845 326.685 120.424 336.737 119.636 340.301C118.24 346.616 111.916 344.963 108.77 341.192C105.241 341.536 101.366 341.263 97.8077 341.192C96.9303 341.22 96.0456 341.194 95.1674 341.192C92.5197 345.05 85.7771 346.739 84.406 340.924C83.5972 337.494 84.1664 326.729 84.175 322.477C75.5119 324.167 72.0714 315.749 82.34 311.462C81.0425 308.786 79.6699 306.111 78.6136 303.329Z"/>
	<path fill="#BCDEF6" transform="scale(2 2)" d="M95.1674 318.13C100.038 317.174 103.904 317.099 108.77 318.13C108.906 324.962 108.818 331.839 108.77 338.673L108.77 341.192C105.241 341.536 101.366 341.263 97.8077 341.192C96.9303 341.22 96.0456 341.194 95.1674 341.192C95.4969 333.564 95.1764 325.775 95.1674 318.13Z"/>
	<path fill="#FFE161" transform="scale(2 2)" d="M78.6136 303.329C89.848 300.783 105.019 294.923 116.256 302.202C118.759 303.824 122.666 308.224 120.754 311.462C109.019 303.786 94.2638 304.102 82.34 311.462C81.0425 308.786 79.6699 306.111 78.6136 303.329Z"/>
	<path transform="scale(2 2)" d="M170.574 303.329C182.045 300.415 193.971 295.563 205.633 300.637C205.652 303.067 205.683 305.498 205.633 307.928C209.036 309.592 215.821 312.015 217.193 315.776C218.854 320.332 214.273 322.205 210.749 322.477C210.771 327.31 213.586 345.357 204.895 344.829C202.673 344.694 201.035 342.839 199.756 341.192C195.512 341.205 191.079 341.496 186.857 341.192C183.873 345.801 177.599 346.709 176.104 340.27C175.276 336.7 175.827 327.526 175.843 323.488C167.842 321.108 169.385 316.102 175.141 312.265C173.961 309.175 171.975 306.346 170.574 303.329Z"/>
	<path fill="#BCDEF6" transform="scale(2 2)" d="M186.857 318.13C191.513 317.456 195.077 317.248 199.756 318.13C199.768 325.811 199.581 333.514 199.756 341.192C195.512 341.205 191.079 341.496 186.857 341.192C187.048 333.524 186.839 325.802 186.857 318.13Z"/>
	<path fill="#FFE161" transform="scale(2 2)" d="M170.574 303.329C182.045 300.415 193.971 295.563 205.633 300.637C205.652 303.067 205.683 305.498 205.633 307.928C194.916 304.412 184.51 306.442 175.141 312.265C173.961 309.175 171.975 306.346 170.574 303.329Z"/>
	<path transform="scale(2 2)" d="M80.0928 352.056C88.8748 351.836 97.7106 352.054 106.499 352.055L196.009 352.064C200.981 352.064 220.708 349.844 222.081 356.186C222.812 359.563 220.145 362.415 217.051 363.016L94.3562 363.013C89.9001 363.013 85.3387 363.249 80.8966 363.077C72.9094 362.768 72.6158 353.161 80.0928 352.056Z"/>
	<path transform="scale(2 2)" d="M93.4144 375.08C100.464 374.272 111.355 377.164 113.567 384.946C113.551 385.016 113.536 385.086 113.519 385.155L113.431 385.502C111.274 394.204 105.406 389.622 100.445 386.799L100.47 401.124C100.474 405.597 101.615 411.103 97.8077 414.272C88.7336 418.114 89.5556 407.948 89.5709 402.246L89.564 387.544C78.107 399.177 69.4217 378.788 93.4144 375.08Z"/>
	<path transform="scale(2 2)" d="M203.77 375.08C208.166 374.161 217.5 378.993 218.717 383.245C220.593 389.799 214.367 392.01 209.566 388.872C209.548 395.351 212.165 410.957 205.633 414.272C197.86 414.513 198.17 407.985 198.191 402.081L198.241 390.02C180.639 391.381 190.665 374.71 203.77 375.08Z"/>
	<path transform="scale(2 2)" d="M145.894 306.262C159.315 306.42 168.092 317.641 159.046 321.04C155.275 322.457 153.256 319.543 150.161 318.13C145.125 316.998 144.402 319.796 140.371 321.18C133.942 323.388 126.571 310.543 145.894 306.262Z"/>
	<path transform="scale(2 2)" d="M284.121 293.501C273.142 286.233 274.356 266.566 287.969 263.617C290.839 262.995 309.98 263.076 312.805 263.558C327.099 265.999 327.564 280.6 320.489 290.95C320.523 295.078 320.556 299.202 320.489 303.329C333.903 291.763 329.887 294.94 342.668 304.58L343.003 304.83C342.992 300.546 343.138 296.255 343.003 291.973C338.037 286.877 335.346 279.074 337.978 272.159C342.071 261.405 361.611 262.249 371.725 263.524C381.716 264.783 386.723 275.498 383.298 284.49C382.461 286.689 381.188 288.774 380.249 290.95C380.287 295.484 379.667 300.371 380.249 304.83C387.816 294.591 393.144 295.767 400.532 304.83C400.871 298.44 402.01 293.277 399.137 287.375C394.822 278.51 396.897 266.649 407.819 264.035C412.712 262.864 426.25 262.947 431.445 263.71C443.367 265.46 445.39 277.067 443.512 287.306C442.544 292.586 438.982 294.95 434.915 297.757C434.91 300.908 435.436 307.631 434.915 310.289C436.619 311.005 437.879 311.959 439.176 313.265C439.494 321.258 439.176 329.396 439.175 337.403L439.176 386.07C443.553 391.418 442.647 397.895 441.505 404.174C459.685 404.426 466.735 423.594 454.728 434.74C448.937 440.115 424.076 442.723 421.272 434.421C417.626 434.51 413.975 434.323 410.319 434.421C407.041 442.732 385.424 439.256 377.11 439.246L293.603 439.259C288.091 439.272 282.099 439.78 276.66 439.094C256.09 436.498 254.745 404.644 280.851 404.174C279.797 396.605 280.2 393.435 284.121 386.799C283.839 374.506 283.377 358.445 284.108 346.235C284.454 340.451 289.058 339.417 293.49 342.157C293.779 337.362 293.758 330.425 293.49 325.607C292.162 326.488 290.819 326.96 289.316 327.434C286.714 326.637 284.878 326.016 284.379 323.082C283.051 315.274 284.536 302.093 284.121 293.501ZM302.484 281.24C306.209 281.613 310.155 282.457 313.865 282.504C314.267 281.426 314.319 275.229 313.016 274.822C310.925 274.168 290.354 274.291 288.764 275.187C287.7 277.652 287.62 281.965 290.461 283.592C294.121 280.02 297.865 280.972 302.484 281.24ZM433.171 282.504C433.242 280.257 433.707 277.467 432.532 275.471C430.686 274.173 410.715 273.778 408.705 275.224C407.987 276.874 407.716 280.807 408.251 282.504C416.471 280.927 425.04 279.726 433.171 282.504ZM372.264 283.592C373.356 281.529 373.545 276.674 372.036 274.891C369.863 274.07 350.935 274.19 348.51 275.233C347.706 276.969 348.281 280.724 348.9 282.504C355.62 280.917 366.371 279.029 372.264 283.592Z"/>
	<defs>
		<linearGradient id="gradient_0" gradientUnits="userSpaceOnUse" x1="407.00229" y1="329.47086" x2="432.95633" y2="330.99725">
			<stop offset="0" stop-color="#F7A800"/>
			<stop offset="1" stop-color="#FEE641"/>
		</linearGradient>
	</defs>
	<path fill="url(#gradient_0)" transform="scale(2 2)" d="M408.251 282.504C416.471 280.927 425.04 279.726 433.171 282.504C432.49 284.679 429.913 285.282 428.448 286.963L428.23 287.211C428.383 291.725 428.009 299.729 434.915 297.757C434.91 300.908 435.436 307.631 434.915 310.289C426.988 309.796 428.228 317.544 428.225 322.943L428.23 377.938C421.301 376.868 418.124 377.056 411.75 380.066C411.525 369.592 411.743 359.073 411.745 348.594L411.75 286.261C410.75 284.797 409.562 283.688 408.251 282.504Z"/>
	<path fill="#FEC302" transform="scale(2 2)" d="M274.611 416.61C280.334 424.13 296.437 421.768 304.638 421.762L436.78 421.77C440.57 421.785 446.531 423.039 449.567 420.19C450.054 423.463 448.286 426.301 445.724 428.177C438.621 428.415 421.398 424.563 421.272 434.421C417.626 434.51 413.975 434.323 410.319 434.421C409.848 424.219 390.415 428.174 382.305 428.173L290.036 428.199C283.107 428.243 271.806 430.617 272.258 420.19C272.891 418.87 273.539 417.629 274.611 416.61Z"/>
	<path fill="#FFE161" transform="scale(2 2)" d="M274.611 416.61C279.455 413.306 313.343 414.917 320.883 414.918L430.468 414.92C437.706 414.918 446.734 412.266 449.567 420.19C446.531 423.039 440.57 421.785 436.78 421.77L304.638 421.762C296.437 421.768 280.334 424.13 274.611 416.61Z"/>
	<path fill="#FEC302" transform="scale(2 2)" d="M290.461 283.592C294.121 280.02 297.865 280.972 302.484 281.24C303.982 284.241 302.406 292.493 302.447 297.181L302.497 368.876C302.503 371.322 302.677 373.863 302.484 376.295C299.923 376.21 297.341 376.656 294.834 377.13L294.865 356.745C294.877 351.923 295.759 346.582 293.49 342.157C293.779 337.362 293.758 330.425 293.49 325.607C295.642 319.941 294.837 314.247 294.846 308.264C294.861 298.814 297.54 289.931 290.461 283.592Z"/>
	<path fill="#FFE161" transform="scale(2 2)" d="M302.484 281.24C306.209 281.613 310.155 282.457 313.865 282.504C306.429 286.46 309.818 299.782 309.815 308.306L309.81 377.938C307.349 377.077 305.076 376.55 302.484 376.295C302.677 373.863 302.503 371.322 302.497 368.876L302.447 297.181C302.406 292.493 303.982 284.241 302.484 281.24Z"/>
	<path fill="#498197" transform="scale(2 2)" d="M320.489 319.267C322.096 317.558 329.558 308.917 331.224 308.61L331.724 309.013C335.031 312.378 338.837 315.569 341.748 319.267L341.763 384.354C341.804 392.241 340.034 395.865 341.748 404.174L337.559 404.174C332.853 404.546 327.889 404.2 323.157 404.174C324.131 398.671 324.317 393.466 320.489 388.872L320.489 319.267Z"/>
	<path fill="#83C1DE" transform="scale(2 2)" d="M331.724 309.013C335.031 312.378 338.837 315.569 341.748 319.267L341.763 384.354C341.804 392.241 340.034 395.865 341.748 404.174L337.559 404.174C335.609 403.954 333.678 404.083 331.724 404.174L331.709 319.872C331.689 316.3 331.396 312.562 331.724 309.013Z"/>
	<path fill="#498197" transform="scale(2 2)" d="M380.249 319.267C381.936 317.117 388.757 309.848 390.702 309.753L391.116 310.289C394.345 313.077 397.723 316.057 400.532 319.267L400.531 365.372C400.531 375.155 401.322 385.406 399.588 395.045C399.413 398.11 400.034 401.162 400.532 404.174L381.489 404.174C384.143 394.518 380.251 391.459 380.244 381.72L380.249 319.267Z"/>
	<path fill="#83C1DE" transform="scale(2 2)" d="M391.116 310.289C394.345 313.077 397.723 316.057 400.532 319.267L400.531 365.372C400.531 375.155 401.322 385.406 399.588 395.045C396.242 394.519 393.591 393.146 391.116 390.871C391.395 387.784 391.14 384.513 391.133 381.405L391.12 328.065C391.123 322.145 391.257 316.206 391.116 310.289Z"/>
	<path fill="#FEC302" transform="scale(2 2)" d="M348.9 282.504C355.62 280.917 366.371 279.029 372.264 283.592C370.756 284.519 369.372 285.331 369.081 287.211L369.083 346.384C369.082 356.874 369.379 367.457 369.081 377.938C366.899 377.344 364.683 376.625 362.444 376.295C359.365 376.108 356.29 377.016 353.393 377.938L353.384 309.321C353.384 299.199 357.082 287.661 348.9 282.504Z"/>
	<path fill="#FFE161" transform="scale(2 2)" d="M362.444 291.973C364.213 289.92 366.68 288.412 369.081 287.211L369.083 346.384C369.082 356.874 369.379 367.457 369.081 377.938C366.899 377.344 364.683 376.625 362.444 376.295C362.441 348.205 362.832 320.056 362.444 291.973Z"/>
	<path fill="#FEC302" transform="scale(2 2)" d="M292.74 392.443C299.152 384.17 311.529 386.511 312.906 397.521C313.188 400.021 311.903 402.327 310.336 404.174C302.187 404.953 284.071 406.553 292.74 392.443Z"/>
	<path fill="#FFE161" transform="scale(2 2)" d="M292.74 392.443C299.152 384.17 311.529 386.511 312.906 397.521C311.973 397.746 310.778 397.557 309.81 397.521C303.566 393.594 301.786 392.68 294.834 396.513C293.833 395.285 293.248 393.924 292.74 392.443Z"/>
	<path fill="#FEC302" transform="scale(2 2)" d="M352.04 397.521C352.02 383.383 372.744 384.212 372.264 400.594C371.308 401.609 370.433 402.963 369.74 404.174C364.759 404.158 359.768 404.316 354.788 404.174C353.037 402.047 352.445 400.183 352.04 397.521Z"/>
	<path fill="#FFE161" transform="scale(2 2)" d="M352.04 397.521C352.02 383.383 372.744 384.212 372.264 400.594C363.034 394.425 364.545 390.765 352.04 397.521Z"/>
	<path fill="#FEC302" transform="scale(2 2)" d="M415.466 390.02C427.158 383.07 436.592 397.07 428.23 403.572C425.379 403.954 421.981 403.683 419.076 403.602C410.113 403.352 409.811 394.877 415.466 390.02Z"/>
	<path fill="#FFE161" transform="scale(2 2)" d="M415.466 390.02C427.158 383.07 436.592 397.07 428.23 403.572C427.508 402.585 426.33 398.114 425.624 396.513C420.973 396.506 417.34 394.599 415.466 390.02Z"/>
</svg>
