<?xml version="1.0" encoding="utf-8" ?>
<svg xmlns="http://www.w3.org/2000/svg" xmlns:xlink="http://www.w3.org/1999/xlink" width="1024" height="1024">
	<path fill="#BCDEF6" transform="scale(2 2)" d="M115.018 244.076C110.332 243.714 108.841 240.741 108.737 236.54C108.525 227.94 108.761 219.279 108.762 210.673L108.744 113.876C108.736 98.5667 105.045 79.3633 122.23 71.798C128.77 68.919 153.113 70.2445 161.672 70.2541L195.282 70.2337C202.897 70.226 216.465 67.4026 219.378 75.2608C224.07 75.281 228.88 75.5472 233.562 75.2608C234.87 85.2292 245.357 82.2845 253.514 82.2847L365.118 82.2792C387.184 82.176 391.501 79.3615 391.489 105.301L391.472 122.127C391.469 140.771 391.692 159.44 391.488 178.082C391.416 184.584 389.072 190.813 396.76 192.874C396.789 197.588 397.194 202.557 396.76 207.246C406.2 207.338 406.368 225.786 396.76 225.828C396.751 229.481 395.075 240.844 398.22 241.589C407.228 243.529 403.487 266.517 403.486 274.796L403.494 351.894C403.597 367.62 405.709 380.283 388.337 387.709C379.917 399.302 379.045 415.191 386.866 427.368C402.517 426.716 397.882 438.863 391.212 439.338C385.176 439.768 378.853 439.335 372.783 439.333L211.089 439.335C211.267 444.358 210.216 446.014 205.417 447.44C197.565 445.333 199.415 438.751 199.504 432.123L189.188 432.123C189.133 436.344 190.333 442.336 187.13 445.623C182.547 450.327 177.614 445.351 177.251 439.335C167.68 439.703 140.297 440.242 132.951 438.292C103.68 430.526 108.739 398.17 108.753 375.192L108.758 279.574C108.758 272.073 105.426 258.237 115.018 257.363C115.517 254.378 114.998 247.543 115.018 244.076Z"/>
	<path transform="scale(2 2)" d="M115.018 244.076C110.332 243.714 108.841 240.741 108.737 236.54C108.525 227.94 108.761 219.279 108.762 210.673L108.744 113.876C108.736 98.5667 105.045 79.3633 122.23 71.798C128.77 68.919 153.113 70.2445 161.672 70.2541L195.282 70.2337C202.897 70.226 216.465 67.4026 219.378 75.2608C218.963 84.8257 208.566 82.2875 201.222 82.2884L179.507 82.2792L179.53 99.0641C179.541 104.197 180.982 111.242 174.028 112.398C171.958 116.764 171.854 122.291 172.219 127.037C180.235 125.203 179.564 134.317 179.54 139.645L179.507 376.956L351.913 376.978C353.701 376.983 355.631 377.158 357.393 376.956C362.159 377.467 366.937 377.033 371.711 376.991C379.164 376.925 387.574 378.487 390.843 369.519C392.188 365.829 391.482 348.928 391.474 344.248L391.462 256.555C391.438 250.368 389.27 241.506 398.22 241.589C407.228 243.529 403.487 266.517 403.486 274.796L403.494 351.894C403.597 367.62 405.709 380.283 388.337 387.709C379.917 399.302 379.045 415.191 386.866 427.368C402.517 426.716 397.882 438.863 391.212 439.338C385.176 439.768 378.853 439.335 372.783 439.333L211.089 439.335C211.267 444.358 210.216 446.014 205.417 447.44C197.565 445.333 199.415 438.751 199.504 432.123L189.188 432.123C189.133 436.344 190.333 442.336 187.13 445.623C182.547 450.327 177.614 445.351 177.251 439.335C167.68 439.703 140.297 440.242 132.951 438.292C103.68 430.526 108.739 398.17 108.753 375.192L108.758 279.574C108.758 272.073 105.426 258.237 115.018 257.363C115.517 254.378 114.998 247.543 115.018 244.076Z"/>
	<path fill="#FEC302" transform="scale(2 2)" d="M115.018 244.076C110.332 243.714 108.841 240.741 108.737 236.54C108.525 227.94 108.761 219.279 108.762 210.673L108.744 113.876C108.736 98.5667 105.045 79.3633 122.23 71.798C128.77 68.919 153.113 70.2445 161.672 70.2541L195.282 70.2337C202.897 70.226 216.465 67.4026 219.378 75.2608C218.963 84.8257 208.566 82.2875 201.222 82.2884L179.507 82.2792L179.53 99.0641C179.541 104.197 180.982 111.242 174.028 112.398C171.958 116.764 171.854 122.291 172.219 127.037C164.186 129.754 167.674 148.85 167.675 157.082L167.674 376.956L149.187 376.939C137.132 376.937 130.937 376.677 120.593 383.756L120.605 275.724C120.616 268.744 123.141 260.195 115.018 257.363C115.517 254.378 114.998 247.543 115.018 244.076Z"/>
	<path transform="scale(2 2)" d="M115.018 244.076C110.332 243.714 108.841 240.741 108.737 236.54C108.525 227.94 108.761 219.279 108.762 210.673L108.744 113.876C108.736 98.5667 105.045 79.3633 122.23 71.798C128.77 68.919 153.113 70.2445 161.672 70.2541L195.282 70.2337C202.897 70.226 216.465 67.4026 219.378 75.2608C218.963 84.8257 208.566 82.2875 201.222 82.2884L179.507 82.2792L179.53 99.0641C179.541 104.197 180.982 111.242 174.028 112.398C163.502 110.121 167.666 92.343 167.674 82.2792C159.327 82.0186 150.903 82.2859 142.546 82.2703C132.385 82.2514 121.079 80.0144 120.957 93.8977C120.891 101.545 122.587 109.984 130.637 112.917C136.559 115.074 143.086 112.851 148.446 114.186C155.16 115.859 156.623 126.434 142.92 126.26C134.105 126.148 128.272 126.166 120.593 121.136L120.601 223.242C120.607 230.671 123.034 241.15 115.018 244.076Z"/>
	<path fill="#FEC302" transform="scale(2 2)" d="M139.2 388.822C141.784 388.59 144.549 388.791 147.151 388.798L373.928 388.822C372.107 393.062 370.756 397.266 369.918 401.808L247.683 401.796C243.45 401.785 230.452 400.491 227.184 403.204C223.249 406.469 225.251 412.658 230.078 413.425C233.683 413.997 239 413.519 242.792 413.52L272.125 413.531L369.918 413.531C370.708 418.308 371.809 422.745 373.224 427.368L211.089 427.368C211.542 416.254 204.341 412.423 199.504 420.414L189.188 420.414C187.02 417.253 182.142 414.529 178.936 418.011C176.713 420.426 177.223 424.337 177.251 427.368L152.231 427.364C147.505 427.369 142.351 427.912 137.71 426.991C115.304 422.548 115.568 391.802 139.2 388.822Z"/>
	<path fill="#6FC4F2" transform="scale(2 2)" d="M365.118 82.2792C387.184 82.176 391.501 79.3615 391.489 105.301L391.472 122.127C391.469 140.771 391.692 159.44 391.488 178.082C391.416 184.584 389.072 190.813 396.76 192.874C396.789 197.588 397.194 202.557 396.76 207.246C406.2 207.338 406.368 225.786 396.76 225.828C396.751 229.481 395.075 240.844 398.22 241.589C389.27 241.506 391.438 250.368 391.462 256.555L391.474 344.248C391.482 348.928 392.188 365.829 390.843 369.519C387.574 378.487 379.164 376.925 371.711 376.991C366.937 377.033 362.159 377.467 357.393 376.956C359.879 376.696 362.601 376.938 365.118 376.956C374.991 369.363 373.962 363.399 373.943 352.183L373.941 115.874C373.942 109.265 374.301 102.385 373.425 95.8222C372.534 89.1511 368.514 87.35 365.118 82.2792Z"/>
	<path transform="scale(2 2)" d="M396.76 207.246C406.2 207.338 406.368 225.786 396.76 225.828C388.47 224.69 388.588 209.133 396.76 207.246Z"/>
	<path transform="scale(2 2)" d="M265.185 127.037L290.186 127.023C302.991 127.018 310.405 125.396 319.79 136.252C341.129 136.218 351.151 138.246 349.455 162.594C351.408 163.596 353.508 164.706 355.284 165.999C367.39 174.811 362.493 193.159 345.87 195.241C345.436 210.052 346.408 226.447 346.398 241.589C361.618 245.482 361.201 268.514 345.898 271.949C341.53 272.93 335.533 272.368 331.002 272.366L303.625 272.35L247.788 272.35C242.073 272.351 225.713 273.008 221.14 271.792C205.776 267.708 207.066 249.448 221.485 241.589C220.683 227.086 223.942 210.467 223.68 195.241C204.538 191.387 203.519 169.546 219.378 164.037C216.225 138.303 226.843 136.156 248.514 136.252C252.241 129.869 257.941 127.57 265.185 127.037Z"/>
	<path fill="white" transform="scale(2 2)" d="M263.558 138.709C275.389 138.307 287.373 138.674 299.219 138.702C308.379 138.724 306.722 140.194 312.111 145.367C321.756 154.625 338.849 137.378 337.712 160.305C334.33 164.026 329.256 162.622 324.682 162.616L304.875 162.594L256.03 162.583C245.772 162.587 224.674 167.782 231.178 151.381C233.43 145.703 246.181 148.781 251.29 147.961C256.882 147.063 258.496 140.77 263.558 138.709Z"/>
	<path fill="white" transform="scale(2 2)" d="M306.362 187.446C308.682 188.948 310.802 191.127 312.971 192.874C312.374 206.394 313.112 228.433 314.029 241.589C311.586 243.038 309.666 244.915 307.829 247.058L307.685 247.24L307.304 247.137C305.466 244.669 303.554 243.129 300.929 241.589C300.505 236.772 300.917 231.056 300.919 226.115L300.929 192.874C302.58 190.715 304.166 189.053 306.362 187.446Z"/>
	<path fill="white" transform="scale(2 2)" d="M262.365 187.446C263.859 188.182 266.681 191.543 268.01 192.874C268.232 209.1 268.01 225.36 268.01 241.589C264.918 242.911 262.887 244.667 260.569 247.058C258.837 245.042 256.827 243.596 254.667 242.065C255.187 225.676 256.856 209.291 256.503 192.874C258.483 191.095 260.4 189.242 262.365 187.446Z"/>
	<path fill="#FEC302" transform="scale(2 2)" d="M235.682 195.241L244.721 195.241C245.287 208.904 243.725 226.53 242.92 240.291L233.562 240.291C232.502 226.738 235.907 209.684 235.682 195.241Z"/>
	<path fill="#FEC302" transform="scale(2 2)" d="M279.901 195.241C283.01 195.165 286.103 195.173 289.212 195.241L289.212 240.291L279.901 240.291L279.901 195.241Z"/>
	<path fill="#FEC302" transform="scale(2 2)" d="M324.797 195.241L334.478 195.241C334.477 210.241 334.786 225.298 334.478 240.291L325.782 240.291C326.583 226.27 324.603 209.842 324.797 195.241Z"/>
	<path fill="#FEC302" transform="scale(2 2)" d="M312.971 174.496C321.27 174.283 337.109 173.631 345.064 174.556C349.712 175.096 351.005 179.107 348.275 182.545C345.1 184.706 340.026 183.786 336.394 183.784L319.79 183.759C316.913 181.259 312.424 178.753 312.971 174.496Z"/>
	<path fill="#FEC302" transform="scale(2 2)" d="M225.133 174.496L255.53 174.496L255.53 177.64C253.709 179.235 251.92 180.833 250.206 182.545C248.105 185.133 224.596 183.958 223.281 183.187C218.802 180.562 219.946 175.414 225.133 174.496Z"/>
	<path fill="#FEC302" transform="scale(2 2)" d="M274.078 252.006C277.773 251.737 290.362 251.596 293.756 252.09C298.231 252.741 299.377 256.549 299.684 260.57C297.668 260.641 295.642 260.585 293.625 260.57L268.01 260.57C268.211 256.149 269.567 253.341 274.078 252.006Z"/>
	<path fill="#FEC302" transform="scale(2 2)" d="M320.768 252.006C325.729 251.91 345.493 250.125 345.864 255.875C346.105 259.598 343.681 260.527 340.487 260.57L314.89 260.57C315.521 256.375 316.514 253.769 320.768 252.006Z"/>
	<path fill="#FEC302" transform="scale(2 2)" d="M227.346 252.006L239.126 251.987C247.375 251.945 251.699 251.157 253.38 260.57L247.687 260.57C244.094 260.569 225.907 261.157 223.751 260.205C219.996 258.546 223.066 253.178 227.346 252.006Z"/>
	<path fill="#FEC302" transform="scale(2 2)" d="M269.344 174.496C273.227 174.427 297.882 173.982 299.658 175.084L299.233 175.273L299.661 175.029C300.559 177.063 296.907 179.599 295.674 180.737C294.815 181.683 294.236 182.652 293.625 183.759C287.748 183.731 281.777 184.066 275.915 183.759C274.196 182.329 267.046 177.191 269.344 174.496Z"/>
	<path transform="scale(2 2)" d="M241.896 319.575C247.059 319.363 252.319 319.563 257.491 319.565L312.492 319.555C316.837 319.55 321.301 319.334 325.635 319.611C333.253 320.097 333.284 330.29 325.782 331.47C308.113 331.731 290.4 331.465 272.727 331.465L252.941 331.485C249.446 331.491 245.858 331.673 242.375 331.434C234.195 330.872 234.383 320.948 241.896 319.575Z"/>
	<path transform="scale(2 2)" d="M279.901 294.544C292.541 294.358 305.209 294.53 317.852 294.557C323.44 294.569 341.888 292.068 343.996 298.612C345.243 302.482 342.527 305.546 339.011 306.563C336.234 306.805 333.34 306.606 330.55 306.591L292.219 306.565C288.579 306.567 284.86 306.746 281.231 306.566C272.905 306.151 271.806 296.026 279.901 294.544Z"/>
	<path transform="scale(2 2)" d="M246.134 294.544C249.394 294.589 256.019 293.82 258.561 295.865C262.37 298.93 261.109 305.107 256.417 306.258C252.679 307.174 243.278 306.575 238.863 306.563C235.348 306.576 228.955 307.381 226.261 304.97C222.685 301.769 224.071 296.067 228.622 294.922C232.334 293.989 241.9 294.533 246.134 294.544Z"/>
	<path transform="scale(2 2)" d="M233.562 75.2608C236.585 66.9039 254.048 70.2468 262.19 70.2487L357.572 70.24C373.506 70.2431 394.082 66.1287 401.518 84.433C403.997 90.5353 403.296 96.7558 403.374 103.158L403.489 167.705C403.494 173.317 403.689 179.014 403.429 184.618C403.186 189.841 402.342 192.18 396.76 192.874C389.072 190.813 391.416 184.584 391.488 178.082C391.692 159.44 391.469 140.771 391.472 122.127L391.489 105.301C391.501 79.3615 387.184 82.176 365.118 82.2792L253.514 82.2847C245.357 82.2845 234.87 85.2292 233.562 75.2608Z"/>
</svg>
